<?xml version="1.0" encoding="utf-8"?>
<!-- Generator: Adobe Illustrator 24.0.0, SVG Export Plug-In . SVG Version: 6.00 Build 0)  -->
<svg version="1.1" id="图层_1" xmlns="http://www.w3.org/2000/svg" xmlns:xlink="http://www.w3.org/1999/xlink" x="0px" y="0px"
	 viewBox="0 0 63.4 63.4" style="enable-background:new 0 0 63.4 63.4;" xml:space="preserve">
<style type="text/css">
	.st0{fill:#003594;}
</style>
<g>
	<path class="st0" d="M50.9,30.5c0,0.4,0,0.8,0,1.2c0,0.4,0,0.8,0,1.2c0-0.4,0-0.8,0-1.2C50.9,31.3,50.9,30.9,50.9,30.5z"/>
	<path class="st0" d="M50.9,30.5c0,0.4,0,0.8,0,1.2c0,0.4,0,0.8,0,1.2c0-0.4,0-0.8,0-1.2C50.9,31.3,50.9,30.9,50.9,30.5z"/>
	<path class="st0" d="M56.3,16.4c-1,0-1.9,0.7-2.7,1.8L6.3,27.6c-0.5-0.5-1-0.8-1.7-0.8c-1.7,0-2.9,2.1-2.9,5c0,2.8,1.3,5,2.9,5
		c0.6,0,1.2-0.3,1.7-0.9l2.9,0.6l-0.6,3c-0.2,1,0,2.1,0.6,3c0.6,0.9,1.5,1.5,2.5,1.7l9.4,2c0.3,0.1,0.5,0.1,0.8,0.1
		c1.8,0,3.5-1.3,3.9-3.2l0.7-3.2l27.2,5.4c0.7,1.2,1.6,1.8,2.7,1.8c3.5,0,5.4-7.9,5.4-15.3C61.7,24.3,59.8,16.4,56.3,16.4z
		 M24.4,42.7c-0.3,1.4-1.7,2.3-3.1,2l-9.4-1.9c-0.7-0.1-1.3-0.6-1.7-1.1c-0.4-0.6-0.5-1.3-0.4-2l0.6-3h0l14.6,2.9L24.4,42.7z
		 M7,34.6l-0.7-0.1l-0.1,0c0,0-0.1,0-0.1,0c-0.1,0-0.2,0-0.2,0c-0.1,0-0.2,0-0.3-0.1c-0.1,0.2-0.2,0.4-0.3,0.6
		c-0.2,0.2-0.4,0.4-0.5,0.4c-0.1,0-0.1,0-0.2,0C3.9,35.4,3,34,3,31.7c0-2.3,0.9-3.7,1.6-3.7c0.1,0,0.1,0,0.2,0
		c0.2,0.1,0.4,0.2,0.5,0.4c0.1,0.2,0.2,0.3,0.3,0.6C5.8,29,5.8,29,5.9,29c0,0,0.1,0,0.1,0l0.2,0L7,28.8l43-8.5
		c-1.2,3.2-1.8,7.2-1.8,11.4c0,4.2,0.6,8.1,1.8,11.3L7,34.6z M51.4,43.4c-1.3-3.2-2-7.3-2-11.6c0-4.4,0.7-8.5,2-11.7l1.3-0.3
		c-1.1,2.6-1.7,6.3-1.9,10c0,0.3,0,0.5,0,0.8c0,0.4,0,0.8,0,1.2c0,0.4,0,0.8,0,1.2c0,0.3,0,0.6,0,0.9c0.2,3.7,0.8,7.4,1.9,9.9
		L51.4,43.4z M56.3,45.7c-0.2,0-0.3,0-0.5-0.1c-0.3-0.1-0.6-0.4-0.8-0.8c-0.2-0.2-0.3-0.5-0.5-0.7c-1-2-1.9-5.4-2.2-9.8
		c0-0.2,0-0.4,0-0.6c0-0.2,0-0.3,0-0.5c0-0.2,0-0.5,0-0.7c0-0.1,0-0.2,0-0.4c0-0.1,0-0.2,0-0.4c0-0.1,0-0.3,0-0.4c0-0.1,0-0.3,0-0.4
		c0-0.2,0-0.5,0-0.7c0-0.2,0-0.4,0-0.5c0-0.2,0-0.4,0-0.6c0.2-4.3,1.1-7.8,2.2-9.8c0.2-0.3,0.3-0.5,0.5-0.7c0.3-0.4,0.6-0.6,0.8-0.8
		c0.2-0.1,0.4-0.1,0.5-0.1c1.9,0,4.1,6,4.1,14C60.4,39.7,58.2,45.7,56.3,45.7z"/>
	<g>
		<path class="st0" d="M52.2,31.3v0.7c0-0.1,0-0.2,0-0.4C52.2,31.6,52.2,31.4,52.2,31.3z"/>
		<path class="st0" d="M52.2,31.7c0,0.1,0,0.3,0,0.4v-0.7C52.2,31.4,52.2,31.6,52.2,31.7z M52.2,31.7c0,0.1,0,0.3,0,0.4v-0.7
			C52.2,31.4,52.2,31.6,52.2,31.7z M52.2,31.7c0,0.1,0,0.3,0,0.4v-0.7C52.2,31.4,52.2,31.6,52.2,31.7z M52.2,31.7c0,0.1,0,0.3,0,0.4
			v-0.7C52.2,31.4,52.2,31.6,52.2,31.7z M52.2,31.7c0,0.1,0,0.3,0,0.4v-0.7C52.2,31.4,52.2,31.6,52.2,31.7z M52.2,31.7
			c0,0.1,0,0.3,0,0.4v-0.7C52.2,31.4,52.2,31.6,52.2,31.7z M52.2,31.7c0,0.1,0,0.3,0,0.4v-0.7C52.2,31.4,52.2,31.6,52.2,31.7z
			 M52.2,31.7c0,0.1,0,0.3,0,0.4v-0.7C52.2,31.4,52.2,31.6,52.2,31.7z M52.2,31.7c0,0.1,0,0.3,0,0.4v-0.7
			C52.2,31.4,52.2,31.6,52.2,31.7z M52.2,31.7c0,0.1,0,0.3,0,0.4v-0.7C52.2,31.4,52.2,31.6,52.2,31.7z M52.2,31.7c0,0.1,0,0.3,0,0.4
			v-0.7C52.2,31.4,52.2,31.6,52.2,31.7z M52.2,31.7c0,0.1,0,0.3,0,0.4v-0.7C52.2,31.4,52.2,31.6,52.2,31.7z M52.2,31.7
			c0,0.1,0,0.3,0,0.4v-0.7C52.2,31.4,52.2,31.6,52.2,31.7z"/>
	</g>
</g>
</svg>
