<?xml version="1.0" encoding="UTF-8"?><svg id="Layer_2" xmlns="http://www.w3.org/2000/svg" viewBox="0 0 72.01 72"><defs><style>.cls-1{fill-rule:evenodd;}.cls-1,.cls-2{fill:none;stroke:#003594;stroke-linecap:round;stroke-linejoin:round;stroke-width:2px;}</style></defs><g id="Layer_1-2"><g><polygon class="cls-1" points="54.68 22.09 17.18 22.09 25.8 13.33 46.37 13.33 54.68 22.09"/><line class="cls-2" x1="25.8" y1="13.33" x2="36.08" y2="43.34"/><line class="cls-2" x1="36.08" y1="13.33" x2="28.8" y2="22.09"/><line class="cls-2" x1="36.08" y1="13.33" x2="43.43" y2="22.09"/><line class="cls-2" x1="46.37" y1="13.33" x2="36.08" y2="43.34"/><polygon class="cls-1" points="36.08 43.34 17.18 22.09 54.68 22.09 36.08 43.34"/><line class="cls-2" x1="35.98" y1="1" x2="35.98" y2="6.93"/><line class="cls-2" x1="24.72" y1="3.1" x2="27.66" y2="8.23"/><line class="cls-2" x1="56.08" y1="9.15" x2="52.24" y2="12.12"/><line class="cls-2" x1="47.44" y1="2.75" x2="44.5" y2="7.89"/><line class="cls-2" x1="19.93" y1="11.78" x2="16.08" y2="8.81"/><path class="cls-1" d="M12.74,43.99c-2.5-2.85-3.88-4.73-5.02-5.35,.62-.93-1.12-10.65-1.71-14.01-.63-3.54-5-3.31-5,.19v15.54c0,.9,7,12.08,9.12,14.62,.82,.99,2.72,2.81,5.89,3.36,1.3,.22,2.26,1.32,2.36,2.64h0m11.4,0v-3.05c0-11.56-5.49-15.31-10.47-16.94-1.7-2.08-3.26-3.7-4.03-5.09-2.19-3.96-4.28-4.78-6.05-3.61-1.04,.69-1.22,1.97-.93,3.19,.62,2.61,3.08,7.1,5.36,9.48,0,0,.31,1.96,.83,3.21"/><path class="cls-1" d="M33.51,62.63l-.83,6.72c0,.81-.58,1.63-1.39,1.63-7.71,0-11.51,.04-15.41,0-.91,0-1.64-.75-1.64-1.65v-6.7c0-.91,.74-1.65,1.65-1.65h15.96c.91,0,1.65,.74,1.65,1.65Z"/><line class="cls-2" x1="28.5" y1="65.98" x2="28.5" y2="65.98"/><path class="cls-1" d="M59.28,43.99c2.5-2.85,3.88-4.73,5.02-5.35-.62-.93,1.12-10.65,1.71-14.01,.63-3.54,5-3.31,5,.19v15.54c0,.9-7,12.08-9.12,14.62-.82,.99-2.72,2.81-5.89,3.36-1.3,.22-2.26,1.32-2.36,2.64h0m-11.4,0v-3.05c0-11.56,5.49-15.31,10.47-16.94,1.7-2.08,3.26-3.7,4.03-5.09,2.19-3.96,4.28-4.78,6.05-3.61,1.04,.69,1.22,1.97,.93,3.19-.62,2.61-3.08,7.1-5.36,9.48,0,0-.31,1.96-.83,3.21"/><path class="cls-1" d="M38.51,62.63l.83,6.72c0,.81,.58,1.63,1.39,1.63,7.71,0,11.67,.04,15.57,0,.91,0,1.64-.75,1.64-1.65v-6.7c0-.91-.74-1.65-1.65-1.65h-16.12c-.91,0-1.65,.74-1.65,1.65Z"/><line class="cls-2" x1="43.51" y1="65.98" x2="43.51" y2="65.98"/></g></g></svg>