<?xml version="1.0" encoding="UTF-8"?><svg id="Layer_2" xmlns="http://www.w3.org/2000/svg" viewBox="0 0 72.46 72.46"><defs><style>.cls-1{fill:none;stroke:#003594;stroke-linecap:round;stroke-linejoin:round;stroke-width:2px;}</style></defs><g id="Layer_1-2"><g><circle class="cls-1" cx="24.46" cy="48" r="10.43"/><path class="cls-1" d="M29.68,48c0,2.88-2.33,5.21-5.21,5.21s-5.21-2.33-5.21-5.21,2.33-5.21,5.21-5.21,5.21,2.33,5.21,5.21Z"/><path class="cls-1" d="M52.06,20.4c-2.04-2.04-2.04-5.34,0-7.37s5.34-2.04,7.37,0,2.04,5.34,0,7.37c-2.04,2.04-5.34,2.04-7.37,0Z"/><path class="cls-1" d="M47.93,51.47v-6.95l-6.06-2.02c-.32-1.01-.73-1.98-1.22-2.91l2.86-5.73-4.92-4.92-5.73,2.86c-.93-.48-1.9-.9-2.91-1.22l-2.02-6.06h-6.95l-2.02,6.06c-1.01,.32-1.98,.73-2.91,1.22l-5.73-2.86-4.92,4.92,2.86,5.73c-.48,.93-.9,1.9-1.22,2.91l-6.06,2.02v6.95l6.06,2.02c.32,1.01,.73,1.98,1.22,2.91l-2.86,5.73,4.92,4.92,5.73-2.86c.93,.48,1.9,.9,2.91,1.22l2.02,6.06h6.95l2.02-6.06c1.01-.32,1.98-.73,2.91-1.22l5.73,2.86,4.92-4.92-2.86-5.73c.48-.93,.9-1.9,1.22-2.91l6.06-2.02Z"/><path class="cls-1" d="M47.15,25.31c.64,.64,1.33,1.18,2.06,1.65l.26,4.26,4.48,1.2,2.36-3.57c1.75-.08,3.48-.52,5.07-1.35l3.81,1.9,3.28-3.28-1.9-3.81c.83-1.59,1.27-3.32,1.35-5.07l3.57-2.36-1.2-4.48-4.26-.26c-.47-.73-1.01-1.42-1.65-2.06-.64-.64-1.33-1.18-2.06-1.65l-.26-4.26-4.48-1.2-2.36,3.57c-1.75,.08-3.48,.52-5.07,1.35l-3.81-1.9-3.28,3.28,1.9,3.81c-.83,1.59-1.27,3.32-1.35,5.07l-3.57,2.36,1.2,4.48,4.26,.26c.47,.73,1.01,1.42,1.65,2.06Z"/></g></g></svg>