<?xml version="1.0" encoding="UTF-8"?><svg id="Layer_2" xmlns="http://www.w3.org/2000/svg" viewBox="0 0 86.83 86.99"><defs><style>.cls-1{stroke-dasharray:0 0 2.96 4.44;}.cls-1,.cls-2,.cls-3{fill:none;stroke:#003594;stroke-linecap:round;stroke-width:2px;}.cls-1,.cls-3{stroke-linejoin:round;}.cls-2{stroke-miterlimit:10;}</style></defs><g id="Layer_1-2"><g><path class="cls-3" d="M42.97,11.45L2.73,51.68c-2.31,2.31-2.31,6.06,0,8.38l24.2,24.2c2.31,2.31,6.06,2.31,8.38,0l40.23-40.23V11.45H42.97Z"/><circle class="cls-3" cx="60.74" cy="26.25" r="5.92"/><path class="cls-1" d="M75.54,26.25c5.03,0,8.17-5.2,9.94-12.15,2.62-10.28-10.22-17.63-17.44-9.86-4.68,5.03-7.3,12.47-7.3,22.01"/><path class="cls-2" d="M33.66,45.55c-2.12,2.12-2.1,5.58,.05,7.72,2.15,2.15,5.6,2.17,7.72,.05,3.01-3.01,.22-8,.22-8,0,0-2.79-4.98,.22-8,2.12-2.12,5.58-2.1,7.72,.05,2.15,2.15,2.17,5.6,.05,7.72"/><line class="cls-3" x1="51.85" y1="35.14" x2="49.6" y2="37.39"/><line class="cls-3" x1="31.12" y1="55.87" x2="33.71" y2="53.28"/><line class="cls-3" x1="22.24" y1="57.35" x2="29.64" y2="64.75"/><line class="cls-3" x1="13.35" y1="57.35" x2="29.64" y2="73.64"/></g></g></svg>