<?xml version="1.0" encoding="UTF-8"?><svg id="Layer_2" xmlns="http://www.w3.org/2000/svg" viewBox="0 0 66.75 69.09"><defs><style>.cls-1{fill:#003594;}</style></defs><g id="Layer_1-2"><path class="cls-1" d="M49.61,39.23c3.49,1.91,7.95,1.85,11.38-.15,3.55-2.06,5.75-5.9,5.75-10.01,0-6.04-4.64-11.02-10.56-11.55C55.15,7.62,46.77,0,36.69,0c-7,0-13.42,3.69-16.94,9.7-.93-.15-1.88-.23-2.85-.23C7.58,9.46,0,17.05,0,26.37c0,4.79,2.04,9.37,5.61,12.57,3.11,2.79,7.13,4.33,11.3,4.33s7.9-1.43,10.97-4.04h6.55v10.33H8.56c-2.27,0-4.1,1.83-4.1,4.1s1.83,4.09,4.1,4.09H42.85v3.14H8.56c-2.27,0-4.1,1.83-4.1,4.1s1.83,4.1,4.1,4.1H58.19c2.25,0,4.09-1.83,4.09-4.1s-1.83-4.1-4.09-4.1h-13.08v-3.14h13.08c2.25,0,4.09-1.83,4.09-4.09s-1.83-4.1-4.09-4.1h-13.08v-10.33h4.5ZM12.44,66.64h-3.31v-3.31h3.31v3.31Zm5.06,0h-3.32v-3.31h3.32v3.31Zm4.96,0h-3.31v-3.31h3.31v3.31Zm4.55-29.67l-.32,.29c-2.7,2.42-6.17,3.75-9.79,3.75s-7.09-1.33-9.79-3.75c-3.08-2.77-4.85-6.74-4.85-10.89,0-8.07,6.57-14.64,14.64-14.64,1.1,0,2.18,.11,3.2,.34l.84,.19,.4-.76c3.02-5.69,8.9-9.23,15.35-9.23,9.22,0,16.83,7.21,17.32,16.41l.08,1.07h1.07c5.14,0,9.31,4.18,9.31,9.33,0,3.3-1.77,6.39-4.63,8.05-2.83,1.66-6.54,1.66-9.37,0l-.26-.15h-5.1v-10.05c1.27-.46,2.18-1.67,2.18-3.1,0-1.83-1.49-3.31-3.31-3.31s-3.31,1.49-3.31,3.31c0,1.43,.91,2.64,2.18,3.1v10.05h-6.16v-9.37c1.27-.47,2.18-1.67,2.18-3.1,0-1.83-1.49-3.31-3.31-3.31s-3.31,1.49-3.31,3.31c0,1.43,.91,2.64,2.18,3.1v9.37h-7.41Zm15.92-13.15c0-.58,.47-1.05,1.05-1.05s1.05,.47,1.05,1.05-.47,1.05-1.05,1.05-1.05-.47-1.05-1.05Zm-8.43,.67c0-.58,.47-1.05,1.05-1.05s1.05,.47,1.05,1.05-.47,1.05-1.05,1.05-1.05-.47-1.05-1.05ZM12.39,55.31h-3.31v-3.32h3.31v3.32Zm5.06,0h-3.32v-3.32h3.32v3.32Zm4.97,0h-3.32v-3.32h3.32v3.32Zm20.42-5.75h-6.16v-10.33h6.16v10.33Z"/></g></svg>