<?xml version="1.0" encoding="UTF-8"?><svg id="Layer_2" xmlns="http://www.w3.org/2000/svg" viewBox="0 0 91.33 91.33"><defs><style>.cls-1{stroke-dasharray:0 0 0 6.29;}.cls-1,.cls-2{fill:none;stroke:#003594;stroke-linecap:round;stroke-linejoin:round;stroke-width:2px;}</style></defs><g id="Layer_1-2"><g><circle class="cls-2" cx="45.66" cy="45.66" r="30.8"/><line class="cls-2" x1="45.66" y1="21.02" x2="45.66" y2="1"/><polyline class="cls-2" points="39.5 7.16 45.66 1 51.82 7.16"/><line class="cls-2" x1="45.66" y1="70.3" x2="45.66" y2="90.33"/><polyline class="cls-2" points="51.82 84.17 45.66 90.33 39.5 84.17"/><line class="cls-2" x1="70.3" y1="45.66" x2="90.33" y2="45.66"/><polyline class="cls-2" points="84.17 39.5 90.33 45.66 84.17 51.82"/><line class="cls-2" x1="21.02" y1="45.66" x2="1" y2="45.66"/><polyline class="cls-2" points="7.16 51.82 1 45.66 7.16 39.5"/><line class="cls-2" x1="63.09" y1="28.24" x2="77.24" y2="14.08"/><polyline class="cls-2" points="68.53 14.08 77.24 14.08 77.24 22.79"/><line class="cls-2" x1="28.24" y1="63.09" x2="14.08" y2="77.24"/><polyline class="cls-2" points="22.79 77.24 14.08 77.24 14.08 68.53"/><line class="cls-2" x1="63.09" y1="63.09" x2="77.24" y2="77.24"/><polyline class="cls-2" points="77.24 68.53 77.24 77.24 68.53 77.24"/><line class="cls-2" x1="28.24" y1="28.24" x2="14.08" y2="14.08"/><polyline class="cls-2" points="14.08 22.79 14.08 14.08 22.79 14.08"/><circle class="cls-1" cx="45.66" cy="45.66" r="20.02" transform="translate(-14.12 21.26) rotate(-22.79)"/></g></g></svg>