<?xml version="1.0" encoding="UTF-8"?><svg id="Layer_2" xmlns="http://www.w3.org/2000/svg" viewBox="0 0 40 40"><defs><style>.cls-1{fill:#fff;}.cls-2{fill:#007ebb;}</style></defs><g id="Layer_1-2"><g><circle class="cls-2" cx="20" cy="20" r="20"/><path class="cls-1" d="M11.61,16.28h3.87v12.44h-3.87v-12.44Zm1.94-6.18c1.24,0,2.24,1,2.24,2.24s-1,2.24-2.24,2.24-2.25-1.01-2.25-2.24,1-2.24,2.25-2.24"/><path class="cls-1" d="M17.91,16.28h3.71v1.7h.05c.52-.98,1.78-2.01,3.66-2.01,3.92,0,4.64,2.58,4.64,5.93v6.82h-3.86v-6.05c0-1.44-.03-3.3-2.01-3.3s-2.32,1.57-2.32,3.19v6.16h-3.87v-12.44Z"/></g></g></svg>