<svg xmlns="http://www.w3.org/2000/svg" width="29.853" height="36.87" viewBox="0 0 29.853 36.87">
  <g id="_1" data-name="1" transform="translate(-575.248 -5039.723)">
    <path id="Path_645" data-name="Path 645" d="M584.989,5061.365a.609.609,0,0,1-.049-.223l-.249-4.1c-2.114.915-3.515,2.519-3.65,4.331l-.248,3.335c-.043.573,1.058.783,1.416.269a10.988,10.988,0,0,1,3.093-3.144A1.09,1.09,0,0,1,584.989,5061.365Z" fill="none" stroke="#003594" stroke-linecap="round" stroke-linejoin="round" stroke-width="0.853"/>
    <path id="Path_646" data-name="Path 646" d="M599.307,5061.368c-.135-1.812-1.537-3.416-3.651-4.331l-.249,4.1a.607.607,0,0,1-.049.223,1.085,1.085,0,0,1-.313.463,10.975,10.975,0,0,1,3.093,3.144c.358.514,1.459.3,1.417-.269Z" fill="none" stroke="#003594" stroke-linecap="round" stroke-linejoin="round" stroke-width="0.853"/>
    <path id="Path_647" data-name="Path 647" d="M590.174,5056.735h0c-.778,0-1.408.424-1.408.948v6.634c0,.523.63.947,1.408.947h0c.777,0,1.407-.424,1.407-.947v-6.634C591.581,5057.159,590.951,5056.735,590.174,5056.735Z" fill="none" stroke="#003594" stroke-linecap="round" stroke-linejoin="round" stroke-width="0.853"/>
    <path id="Path_648" data-name="Path 648" d="M595.71,5049.677h0a14.792,14.792,0,0,0-5.536-9.527,14.787,14.787,0,0,0-5.536,9.527h0a18.013,18.013,0,0,0-.165,3.756l.467,7.709c0,.856,1.5,1.571,3.826,1.753v-5.212c0-.524.832-.948,1.408-.948s1.407.424,1.407.948v5.212c2.33-.182,3.826-.9,3.826-1.753l.467-7.709A18.084,18.084,0,0,0,595.71,5049.677Z" fill="none" stroke="#003594" stroke-linecap="round" stroke-linejoin="round" stroke-width="0.853"/>
    <path id="Path_649" data-name="Path 649" d="M584.722,5057.523c0,.862,1.6,1.581,4.044,1.757" fill="none" stroke="#003594" stroke-linecap="round" stroke-linejoin="round" stroke-width="0.853"/>
    <path id="Path_650" data-name="Path 650" d="M591.581,5059.28c2.449-.176,4.044-.9,4.044-1.757" fill="none" stroke="#003594" stroke-linecap="round" stroke-linejoin="round" stroke-width="0.853"/>
    <path id="Path_651" data-name="Path 651" d="M590.174,5044.948a5.259,5.259,0,0,0,3.179-.883,14.168,14.168,0,0,0-3.179-3.915,14.188,14.188,0,0,0-3.18,3.915A5.262,5.262,0,0,0,590.174,5044.948Z" fill="none" stroke="#003594" stroke-linecap="round" stroke-linejoin="round" stroke-width="0.853"/>
    <path id="Path_652" data-name="Path 652" d="M586.831,5065.755h0a5.992,5.992,0,0,0,1.562,5.12l1.781,1.7,1.781-1.7a6,6,0,0,0,1.562-5.12h0" fill="none" stroke="#003594" stroke-linecap="round" stroke-linejoin="round" stroke-width="0.853"/>
    <path id="Path_653" data-name="Path 653" d="M591.38,5048.343a1.706,1.706,0,1,1-2.412,0A1.706,1.706,0,0,1,591.38,5048.343Z" fill="none" stroke="#003594" stroke-linecap="round" stroke-linejoin="round" stroke-width="0.853"/>
    <path id="Path_654" data-name="Path 654" d="M595.846,5073.48a2.46,2.46,0,0,0-1.667-.007" fill="none" stroke="#003594" stroke-linecap="round" stroke-linejoin="round" stroke-width="0.853"/>
    <path id="Path_655" data-name="Path 655" d="M604.6,5075.99a2.719,2.719,0,0,0,.07-.6,2.808,2.808,0,0,0-1.717-2.574,2.361,2.361,0,0,0,.49-1.44,2.431,2.431,0,0,0-2.453-2.408,2.463,2.463,0,0,0-1.977.986" fill="none" stroke="#003594" stroke-linecap="round" stroke-linejoin="round" stroke-width="0.853"/>
    <path id="Path_656" data-name="Path 656" d="M595.957,5073.52a2.41,2.41,0,0,1,1.5,2.219" fill="none" stroke="#003594" stroke-linecap="round" stroke-linejoin="round" stroke-width="0.853"/>
    <path id="Path_657" data-name="Path 657" d="M582.471,5069.575" fill="none" stroke="#003594" stroke-linecap="round" stroke-linejoin="round" stroke-width="0.853"/>
    <path id="Path_658" data-name="Path 658" d="M601.265,5072.63a2.893,2.893,0,0,1,2.571.771" fill="none" stroke="#003594" stroke-linecap="round" stroke-linejoin="round" stroke-width="0.853"/>
    <path id="Path_659" data-name="Path 659" d="M585.859,5075.1a1.188,1.188,0,0,1,.81-.891,1.241,1.241,0,0,1,1.164.23" fill="none" stroke="#003594" stroke-linecap="round" stroke-linejoin="round" stroke-width="0.853"/>
    <path id="Path_660" data-name="Path 660" d="M580.834,5074.3a1.857,1.857,0,0,0,.524,1.687" fill="none" stroke="#003594" stroke-linecap="round" stroke-linejoin="round" stroke-width="0.853"/>
    <path id="Path_661" data-name="Path 661" d="M576.64,5073.477a1.578,1.578,0,0,1-.205-.777,1.71,1.71,0,0,1,1.125-1.563,1.368,1.368,0,0,1-.321-.874,1.54,1.54,0,0,1,1.607-1.462,1.657,1.657,0,0,1,1.295.6,2.169,2.169,0,0,1,1.919-1.086,2.053,2.053,0,0,1,2.143,1.949,1.8,1.8,0,0,1-.284.968" fill="none" stroke="#003594" stroke-linecap="round" stroke-linejoin="round" stroke-width="0.853"/>
    <path id="Path_662" data-name="Path 662" d="M583.287,5071.863a2.026,2.026,0,0,0,.633-.631" fill="none" stroke="#003594" stroke-linecap="round" stroke-linejoin="round" stroke-width="0.853"/>
    <path id="Path_663" data-name="Path 663" d="M578.668,5071.026a2,2,0,0,0-1.684.468" fill="none" stroke="#003594" stroke-linecap="round" stroke-linejoin="round" stroke-width="0.853"/>
    <path id="Path_664" data-name="Path 664" d="M577.082,5073.212a2.4,2.4,0,0,0-1.408,2.176,2.35,2.35,0,0,0,.081.6" fill="none" stroke="#003594" stroke-linecap="round" stroke-linejoin="round" stroke-width="0.853"/>
    <path id="Path_665" data-name="Path 665" d="M596.267,5069.164a2.721,2.721,0,0,1,2.75.788" fill="none" stroke="#003594" stroke-linecap="round" stroke-linejoin="round" stroke-width="0.853"/>
  </g>
</svg>
