<svg xmlns="http://www.w3.org/2000/svg" width="26.001" height="38.51" viewBox="0 0 26.001 38.51">
  <g id="_2" data-name="2" transform="translate(-577.912 -5147.658)">
    <path id="Path_666" data-name="Path 666" d="M594.455,5172.044q-3.542,4.165-7.084,0a5.241,5.241,0,0,1-3.671-.178v13.8l7.213-5.771,7.213,5.771v-13.8A5.241,5.241,0,0,1,594.455,5172.044Z" fill="none" stroke="#003594" stroke-linecap="round" stroke-linejoin="round" stroke-width="1"/>
    <path id="Path_667" data-name="Path 667" d="M594.455,5150.24q5.314-1.288,5.732,4.164,5.055,2.084,2.189,6.738,2.867,4.656-2.189,6.738-.418,5.451-5.732,4.164-3.542,4.165-7.084,0-5.314,1.287-5.732-4.164-5.055-2.082-2.189-6.738-2.867-4.655,2.189-6.738.419-5.451,5.732-4.164Q590.913,5146.076,594.455,5150.24Z" fill="none" stroke="#003594" stroke-linecap="round" stroke-linejoin="round" stroke-width="1"/>
  </g>
</svg>
