<svg xmlns="http://www.w3.org/2000/svg" width="35.44" height="42.001" viewBox="0 0 35.44 42.001">
  <g id="_4" data-name="4" transform="translate(-571.642 -5363.717)">
    <path id="Path_639" data-name="Path 639" d="M600.37,5388.775c1.447,0,3.489,0,4.969.117a1.265,1.265,0,0,1,1.243,1.33,1.24,1.24,0,0,1-1.17,1.276h-3.255m.713-4.356a4.043,4.043,0,0,1,.471.234c.337.183.66,1.4.66,1.4m-9.672,1.7c2.042-2.382,3.545-3.583,4.226-3.779a3.829,3.829,0,0,1,1.147-.116m5.586,7.64a2.067,2.067,0,0,1,.273,1.237,1.526,1.526,0,0,1-1.492,1.492h-2.653m3.123-5.452h.341a1.246,1.246,0,0,1,1.361,1.361,1.373,1.373,0,0,1-1.435,1.361h-2.989" fill="none" stroke="#003594" stroke-linecap="round" stroke-linejoin="round" stroke-width="1" fill-rule="evenodd"/>
    <line id="Line_22" data-name="Line 22" x2="1.846" transform="translate(593.308 5389.456)" fill="none" stroke="#003594" stroke-linecap="round" stroke-linejoin="round" stroke-width="1"/>
    <path id="Path_640" data-name="Path 640" d="M604.11,5396.987a2.3,2.3,0,0,1,.089.83c-.064.872-.681,1.3-1.7,1.51a19.846,19.846,0,0,1-4.424.34,5.634,5.634,0,0,1-3.4-1.361h-1.361" fill="none" stroke="#003594" stroke-linecap="round" stroke-linejoin="round" stroke-width="1" fill-rule="evenodd"/>
    <line id="Line_23" data-name="Line 23" x1="1.021" transform="translate(599.434 5388.775)" fill="none" stroke="#003594" stroke-linecap="round" stroke-linejoin="round" stroke-width="1"/>
    <line id="Line_24" data-name="Line 24" transform="translate(591.606 5397.285)" fill="none" stroke="#003594" stroke-linecap="round" stroke-linejoin="round" stroke-width="1"/>
    <path id="Path_641" data-name="Path 641" d="M572.142,5387.545h17.672v12.017H572.142" fill="none" stroke="#003594" stroke-linecap="round" stroke-linejoin="round" stroke-width="1"/>
    <path id="Path_642" data-name="Path 642" d="M599.711,5367.045v-1.414a1.414,1.414,0,0,1,1.414-1.414h0a1.414,1.414,0,0,1,1.414,1.414v1.414" fill="none" stroke="#003594" stroke-linecap="round" stroke-linejoin="round" stroke-width="1"/>
    <line id="Line_25" data-name="Line 25" y2="5.9" transform="translate(602.539 5399.318)" fill="none" stroke="#003594" stroke-linecap="round" stroke-linejoin="round" stroke-width="1"/>
    <line id="Line_26" data-name="Line 26" y1="5.573" transform="translate(599.711 5399.644)" fill="none" stroke="#003594" stroke-linecap="round" stroke-linejoin="round" stroke-width="1"/>
    <line id="Line_27" data-name="Line 27" y2="10.421" transform="translate(602.539 5378.355)" fill="none" stroke="#003594" stroke-linecap="round" stroke-linejoin="round" stroke-width="1"/>
    <line id="Line_28" data-name="Line 28" y1="10.421" transform="translate(599.711 5378.355)" fill="none" stroke="#003594" stroke-linecap="round" stroke-linejoin="round" stroke-width="1"/>
    <path id="Path_643" data-name="Path 643" d="M592.627,5388.776h-2.813v10.211h2.813a.681.681,0,0,0,.681-.681v-8.849A.681.681,0,0,0,592.627,5388.776Z" fill="none" stroke="#003594" stroke-linecap="round" stroke-linejoin="round" stroke-width="1" fill-rule="evenodd"/>
    <path id="Path_644" data-name="Path 644" d="M573.555,5368.459h14.138v5.655h0v5.655H573.555l4.948-5.655Z" fill="none" stroke="#003594" stroke-linecap="round" stroke-linejoin="round" stroke-width="1"/>
    <rect id="Rectangle_26" data-name="Rectangle 26" width="15.552" height="11.31" transform="translate(587.693 5367.045)" fill="none" stroke="#003594" stroke-linecap="round" stroke-linejoin="round" stroke-width="1"/>
  </g>
</svg>
