<svg xmlns="http://www.w3.org/2000/svg" width="35.44" height="42.001" viewBox="0 0 35.44 42.001">
  <g id="_7" data-name="7" transform="translate(1133.936 -4400.727)">
    <path id="Path_595" data-name="Path 595" d="M600.37,5708.775c1.447,0,3.489,0,4.969.117a1.265,1.265,0,0,1,1.243,1.33,1.24,1.24,0,0,1-1.17,1.276h-3.255m.713-4.356a4.043,4.043,0,0,1,.471.234c.337.183.66,1.4.66,1.4m-9.672,1.7c2.042-2.382,3.545-3.583,4.226-3.779a3.829,3.829,0,0,1,1.147-.116m5.586,7.64a2.067,2.067,0,0,1,.273,1.237,1.526,1.526,0,0,1-1.492,1.492h-2.653m3.123-5.452h.341a1.246,1.246,0,0,1,1.361,1.361,1.373,1.373,0,0,1-1.435,1.361h-2.989" transform="translate(-1705.578 -1282.99)" fill="none" stroke="#003594" stroke-linecap="round" stroke-linejoin="round" stroke-width="1" fill-rule="evenodd"/>
    <line id="Line_1" data-name="Line 1" x2="1.846" transform="translate(-1112.27 4426.466)" fill="none" stroke="#003594" stroke-linecap="round" stroke-linejoin="round" stroke-width="1"/>
    <path id="Path_596" data-name="Path 596" d="M604.11,5716.987a2.3,2.3,0,0,1,.089.83c-.064.872-.681,1.3-1.7,1.51a19.846,19.846,0,0,1-4.424.34,5.634,5.634,0,0,1-3.4-1.361h-1.361" transform="translate(-1705.578 -1282.99)" fill="none" stroke="#003594" stroke-linecap="round" stroke-linejoin="round" stroke-width="1" fill-rule="evenodd"/>
    <line id="Line_2" data-name="Line 2" x1="1.021" transform="translate(-1106.144 4425.785)" fill="none" stroke="#003594" stroke-linecap="round" stroke-linejoin="round" stroke-width="1"/>
    <line id="Line_3" data-name="Line 3" transform="translate(-1113.972 4434.295)" fill="none" stroke="#003594" stroke-linecap="round" stroke-linejoin="round" stroke-width="1"/>
    <path id="Path_597" data-name="Path 597" d="M572.142,5707.545h17.672v12.017H572.142" transform="translate(-1705.578 -1282.99)" fill="none" stroke="#003594" stroke-linecap="round" stroke-linejoin="round" stroke-width="1"/>
    <path id="Path_598" data-name="Path 598" d="M599.711,5687.045v-1.414a1.414,1.414,0,0,1,1.414-1.414h0a1.414,1.414,0,0,1,1.414,1.414v1.414" transform="translate(-1705.578 -1282.99)" fill="none" stroke="#003594" stroke-linecap="round" stroke-linejoin="round" stroke-width="1"/>
    <line id="Line_4" data-name="Line 4" y2="5.9" transform="translate(-1103.039 4436.328)" fill="none" stroke="#003594" stroke-linecap="round" stroke-linejoin="round" stroke-width="1"/>
    <line id="Line_5" data-name="Line 5" y1="5.573" transform="translate(-1105.867 4436.654)" fill="none" stroke="#003594" stroke-linecap="round" stroke-linejoin="round" stroke-width="1"/>
    <line id="Line_6" data-name="Line 6" y2="10.421" transform="translate(-1103.039 4415.365)" fill="none" stroke="#003594" stroke-linecap="round" stroke-linejoin="round" stroke-width="1"/>
    <line id="Line_7" data-name="Line 7" y1="10.421" transform="translate(-1105.867 4415.365)" fill="none" stroke="#003594" stroke-linecap="round" stroke-linejoin="round" stroke-width="1"/>
    <path id="Path_599" data-name="Path 599" d="M592.627,5708.776h-2.813v10.211h2.813a.681.681,0,0,0,.681-.681v-8.849A.681.681,0,0,0,592.627,5708.776Z" transform="translate(-1705.578 -1282.99)" fill="none" stroke="#003594" stroke-linecap="round" stroke-linejoin="round" stroke-width="1" fill-rule="evenodd"/>
    <path id="Path_600" data-name="Path 600" d="M573.555,5688.459h14.138v5.655h0v5.655H573.555l4.948-5.655Z" transform="translate(-1705.578 -1282.99)" fill="none" stroke="#003594" stroke-linecap="round" stroke-linejoin="round" stroke-width="1"/>
    <rect id="Rectangle_9" data-name="Rectangle 9" width="15.552" height="11.31" transform="translate(-1117.884 4404.055)" fill="none" stroke="#003594" stroke-linecap="round" stroke-linejoin="round" stroke-width="1"/>
  </g>
</svg>
