<svg xmlns="http://www.w3.org/2000/svg" width="40.963" height="37.357" viewBox="0 0 40.963 37.357">
  <g id="mm-blog-icon" transform="translate(-5407.567 -246.875)">
    <path id="Path_39" data-name="Path 39" d="M5412.822,278.235s2.3,2.275,4.069,2.5c3.8.485,6.013-.066,11.992-5.839.9-.868,1.762-1.847,2.632-2.859a.546.546,0,0,0-.3-.889l-4.1-1.435,6.858-1.646a1.824,1.824,0,0,0,1.264-.77c1.785-7.267,7.614-15.3,12.268-19.307-6.468-1.831-15.5,1.292-23.546,7.267a1.835,1.835,0,0,0-.749,1.265l-2.347,5.313-.472-2.671a.54.54,0,0,0-.885-.3c-.9.8-1.762,1.607-2.561,2.415-6.213,6.264-6.368,11.432-5.593,14.135a4.256,4.256,0,0,0,1.476,2.822" fill="none" stroke="#1a37a5" stroke-miterlimit="10" stroke-width="1" fill-rule="evenodd"/>
    <path id="Path_40" data-name="Path 40" d="M5436.852,253.287c-12.153,9.046-20.386,18.3-28.873,30.662" fill="none" stroke="#1a37a5" stroke-miterlimit="10" stroke-width="1" fill-rule="evenodd"/>
  </g>
</svg>