<svg xmlns="http://www.w3.org/2000/svg" width="34.603" height="41.1" viewBox="0 0 34.603 41.1">
  <g id="mm-career-icon" transform="translate(-1030.557 -246.113)">
    <path id="Path_29" data-name="Path 29" d="M7557.51,272.932c1.432,0,3.454,0,4.92.115a1.251,1.251,0,0,1,1.23,1.317,1.227,1.227,0,0,1-1.158,1.264h-3.223m.706-4.314a4.013,4.013,0,0,1,.467.232c.333.181.653,1.386.653,1.386m-9.578,1.685c2.022-2.359,3.511-3.549,4.185-3.742a3.81,3.81,0,0,1,1.136-.116m5.532,7.566a2.041,2.041,0,0,1,.269,1.224,1.51,1.51,0,0,1-1.477,1.478h-2.627m3.093-5.4h.337a1.235,1.235,0,0,1,1.349,1.348,1.361,1.361,0,0,1-1.422,1.347h-2.96" transform="translate(-6499 -2)" fill="none" stroke="#1a37a5" stroke-miterlimit="10" stroke-width="1" fill-rule="evenodd"/>
    <line id="Line_6" data-name="Line 6" x2="1.828" transform="translate(1051.516 271.606)" fill="none" stroke="#1a37a5" stroke-miterlimit="10" stroke-width="1"/>
    <path id="Path_30" data-name="Path 30" d="M7561.213,281.063a2.252,2.252,0,0,1,.088.822c-.063.863-.674,1.284-1.685,1.495a19.616,19.616,0,0,1-4.381.337,5.582,5.582,0,0,1-3.371-1.348h-1.348" transform="translate(-6499 -2)" fill="none" stroke="#1a37a5" stroke-miterlimit="10" stroke-width="1" fill-rule="evenodd"/>
    <line id="Line_7" data-name="Line 7" x1="1.011" transform="translate(1057.583 270.932)" fill="none" stroke="#1a37a5" stroke-miterlimit="10" stroke-width="1"/>
    <line id="Line_8" data-name="Line 8" transform="translate(1049.831 279.358)" fill="none" stroke="#1a37a5" stroke-miterlimit="10" stroke-width="1"/>
    <path id="Path_31" data-name="Path 31" d="M7529.557,271.713h17.5v11.9h-17.5" transform="translate(-6499 -2)" fill="none" stroke="#1a37a5" stroke-miterlimit="10" stroke-width="1"/>
    <path id="Path_32" data-name="Path 32" d="M7556.857,251.413v-1.4a1.4,1.4,0,0,1,1.4-1.4h0a1.4,1.4,0,0,1,1.4,1.4v1.4" transform="translate(-6499 -2)" fill="none" stroke="#1a37a5" stroke-miterlimit="10" stroke-width="1"/>
    <line id="Line_9" data-name="Line 9" y2="5.842" transform="translate(1060.657 281.371)" fill="none" stroke="#1a37a5" stroke-miterlimit="10" stroke-width="1"/>
    <line id="Line_10" data-name="Line 10" y1="5.519" transform="translate(1057.857 281.694)" fill="none" stroke="#1a37a5" stroke-miterlimit="10" stroke-width="1"/>
    <line id="Line_11" data-name="Line 11" y2="10.319" transform="translate(1060.657 260.613)" fill="none" stroke="#1a37a5" stroke-miterlimit="10" stroke-width="1"/>
    <line id="Line_12" data-name="Line 12" y1="10.319" transform="translate(1057.857 260.613)" fill="none" stroke="#1a37a5" stroke-miterlimit="10" stroke-width="1"/>
    <path id="Path_33" data-name="Path 33" d="M7549.842,272.932h-2.785v10.111h2.785a.674.674,0,0,0,.674-.674v-8.763A.675.675,0,0,0,7549.842,272.932Z" transform="translate(-6499 -2)" fill="none" stroke="#1a37a5" stroke-miterlimit="10" stroke-width="1" fill-rule="evenodd"/>
    <path id="Path_34" data-name="Path 34" d="M7530.957,252.813h14v5.6h0v5.6h-14l4.9-5.6Z" transform="translate(-6499 -2)" fill="none" stroke="#1a37a5" stroke-miterlimit="10" stroke-width="1"/>
    <rect id="Rectangle_9" data-name="Rectangle 9" width="15.4" height="11.2" transform="translate(1045.957 249.413)" fill="none" stroke="#1a37a5" stroke-miterlimit="10" stroke-width="1"/>
  </g>
</svg>