<svg xmlns="http://www.w3.org/2000/svg" width="36.363" height="36.363" viewBox="0 0 36.363 36.363">
  <g id="mm-diy-icon" transform="translate(-2819.019 -335.272)">
    <line id="Line_41" data-name="Line 41" y1="4.515" x2="4.523" transform="translate(2822.833 361.295)" fill="none" stroke="#1a37a5" stroke-miterlimit="10" stroke-width="1"/>
    <line id="Line_42" data-name="Line 42" y1="4.515" x2="4.523" transform="translate(2824.807 363.267)" fill="none" stroke="#1a37a5" stroke-miterlimit="10" stroke-width="1"/>
    <line id="Line_43" data-name="Line 43" y1="17.43" x2="17.446" transform="translate(2833.279 339.922)" fill="none" stroke="#1a37a5" stroke-miterlimit="10" stroke-width="1"/>
    <path id="Path_66" data-name="Path 66" d="M2852.7,335.978l-1.974,1.972-.493,1.479.987.986,1.481-.493,1.974-1.972Z" fill="none" stroke="#1a37a5" stroke-miterlimit="10" stroke-width="1" fill-rule="evenodd"/>
    <path id="Path_67" data-name="Path 67" d="M2835.253,361.3l.988-.986-5.923-5.915-.988.986a1.393,1.393,0,0,0,0,1.972h0l-.987.985h0a1.4,1.4,0,0,0-1.974,0l-5.386,5.377a4.3,4.3,0,0,0-.214,5.947,4.192,4.192,0,0,0,6.013.092l5.51-5.5a1.393,1.393,0,0,0,0-1.971h0l.987-.986h0A1.4,1.4,0,0,0,2835.253,361.3Z" fill="none" stroke="#1a37a5" stroke-miterlimit="10" stroke-width="1" fill-rule="evenodd"/>
    <path id="Path_68" data-name="Path 68" d="M2845.3,357.714l-12.358-12.358a6.869,6.869,0,0,0-9.572-8.6l4.635,4.635-2.915,2.914-4.635-4.635a6.87,6.87,0,0,0,8.6,9.572L2841.41,361.6a6.869,6.869,0,0,0,9.572,8.6l-4.635-4.635,2.915-2.915,4.635,4.635a6.87,6.87,0,0,0-8.6-9.572Z" fill="none" stroke="#1a37a5" stroke-miterlimit="10" stroke-width="1" fill-rule="evenodd"/>
  </g>
</svg>