<svg xmlns="http://www.w3.org/2000/svg" width="34.763" height="41.606" viewBox="0 0 34.763 41.606">
  <g id="mm-grocery-icon" transform="translate(-2355.445 -168.861)">
    <g id="Group_49" data-name="Group 49">
      <path id="Path_69" data-name="Path 69" d="M2375.083,209.95c-2.613.215-2.209-1.212-3.228-1.212-1.092,0-1.233,1.383-3.588,1.089-5.634-.705-12.322-11.248-12.322-18.657,0-7.869,4.73-13.012,14.174-10.672q.944.234,1.951.569c11.947-2.682,17.638,1.711,17.638,10.1C2389.708,198.644,2382.468,209.343,2375.083,209.95Z" fill="none" stroke="#1a37a5" stroke-miterlimit="10" stroke-width="1" fill-rule="evenodd"/>
      <path id="Path_70" data-name="Path 70" d="M2379.093,205.4a18.7,18.7,0,0,0,4.265-4.512" fill="none" stroke="#1a37a5" stroke-miterlimit="10" stroke-width="1" fill-rule="evenodd"/>
      <path id="Path_71" data-name="Path 71" d="M2358.745,191.17a12.661,12.661,0,0,0,.238,2.357" fill="none" stroke="#1a37a5" stroke-miterlimit="10" stroke-width="1" fill-rule="evenodd"/>
      <path id="Path_72" data-name="Path 72" d="M2365.829,182.73c-4.416,0-6.2,2.61-6.811,5.545" fill="none" stroke="#1a37a5" stroke-miterlimit="10" stroke-width="1" fill-rule="evenodd"/>
      <path id="Path_73" data-name="Path 73" d="M2381.773,176.123c-4.028,1.68-7.241,1.329-9.3,1.865,0-2.141.493-6.228,4.521-7.908s8.522-.051,9.978,1.566C2386.379,173.085,2385.8,174.442,2381.773,176.123Z" fill="none" stroke="#1a37a5" stroke-miterlimit="10" stroke-width="1" fill-rule="evenodd"/>
      <path id="Path_74" data-name="Path 74" d="M2370.137,170.408a13.921,13.921,0,0,1,1.98,10.613" fill="none" stroke="#1a37a5" stroke-miterlimit="10" stroke-width="1" fill-rule="evenodd"/>
    </g>
  </g>
</svg>