<svg xmlns="http://www.w3.org/2000/svg" width="38.584" height="26.92" viewBox="0 0 38.584 26.92">
  <g id="mm-hrc-icon" transform="translate(-1023.925 -181.149)">
    <path id="Path_101" data-name="Path 101" d="M1054.233,205.017a7.775,7.775,0,0,1,7.776,7.776" transform="translate(0 -13)" fill="none" stroke="#1a37a5" stroke-linecap="round" stroke-linejoin="round" stroke-width="1"/>
    <path id="Path_102" data-name="Path 102" d="M1024.425,212.793a7.776,7.776,0,0,1,7.776-7.776" transform="translate(0 -13)" fill="none" stroke="#1a37a5" stroke-linecap="round" stroke-linejoin="round" stroke-width="1"/>
    <path id="Path_103" data-name="Path 103" d="M1034.793,199.833a5.184,5.184,0,0,1,4.6,2.782" transform="translate(0 -13)" fill="none" stroke="#1a37a5" stroke-linecap="round" stroke-linejoin="round" stroke-width="1"/>
    <path id="Path_104" data-name="Path 104" d="M1056.763,205.446a9.713,9.713,0,0,0-18.75-4.488,5.181,5.181,0,0,0-8.4,4.059c0,.15.01.3.023.443a7.772,7.772,0,0,0,2.569,15.109h22.032a7.773,7.773,0,0,0,2.53-15.123Z" transform="translate(0 -13)" fill="none" stroke="#1a37a5" stroke-linecap="round" stroke-linejoin="round" stroke-width="1"/>
  </g>
</svg>