<svg xmlns="http://www.w3.org/2000/svg" width="34.754" height="39.475" viewBox="0 0 34.754 39.475">
  <g id="mm-pr-icon" transform="translate(-5409.362 -163.61)">
    <path id="Path_41" data-name="Path 41" d="M5419.614,176.935a7.125,7.125,0,0,1,7.125-7.125" fill="none" stroke="#1a37a5" stroke-miterlimit="10" stroke-width="1"/>
    <path id="Path_42" data-name="Path 42" d="M5426.739,166.96a10,10,0,0,1,2.134.235c0-.313,0-.621,0-.947a2.137,2.137,0,1,0-4.275,0c0,.325,0,.634,0,.947A9.992,9.992,0,0,1,5426.739,166.96Z" fill="none" stroke="#1a37a5" stroke-miterlimit="10" stroke-width="1"/>
    <path id="Path_43" data-name="Path 43" d="M5436.714,183.064v-6.129a9.975,9.975,0,0,0-9.975-9.975h0a9.975,9.975,0,0,0-9.975,9.975v6.129a14.255,14.255,0,0,1-3.43,9.274l-3.1,3.62a1.425,1.425,0,0,0,1.082,2.352h30.854a1.425,1.425,0,0,0,1.082-2.352l-3.1-3.62A14.25,14.25,0,0,1,5436.714,183.064Z" fill="none" stroke="#1a37a5" stroke-miterlimit="10" stroke-width="1"/>
    <path id="Path_44" data-name="Path 44" d="M5430.3,199.023a3.563,3.563,0,0,1-7.125,0v-.713h7.125Z" fill="none" stroke="#1a37a5" stroke-miterlimit="10" stroke-width="1"/>
  </g>
</svg>