<svg xmlns="http://www.w3.org/2000/svg" width="37.541" height="37.534" viewBox="0 0 37.541 37.534">
  <g id="mm-pharmacy-icon" transform="translate(-3321.621 -171.712)">
    <path id="Path_63" data-name="Path 63" d="M3355.238,175.634h0a11.764,11.764,0,0,1,0,16.59l-13.1,13.1a11.77,11.77,0,0,1-16.595,0h0a11.765,11.765,0,0,1,0-16.591l13.1-13.1a11.769,11.769,0,0,1,16.594,0Z" fill="none" stroke="#1a37a5" stroke-miterlimit="10" stroke-width="1" fill-rule="evenodd"/>
    <line id="Line_37" data-name="Line 37" x1="1.124" y2="1.124" transform="translate(3335.518 181.199)" fill="none" stroke="#1a37a5" stroke-miterlimit="10" stroke-width="1"/>
    <path id="Path_64" data-name="Path 64" d="M3346.018,174.776a9.226,9.226,0,0,0-1.289.219,9.1,9.1,0,0,0-4.3,2.421l-2.062,2.061" fill="none" stroke="#1a37a5" stroke-miterlimit="10" stroke-width="1" fill-rule="evenodd"/>
    <path id="Path_65" data-name="Path 65" d="M3337.063,205.654a9.127,9.127,0,0,0,3.293-2.113l2.905-2.9" fill="none" stroke="#1a37a5" stroke-miterlimit="10" stroke-width="1" fill-rule="evenodd"/>
    <line id="Line_38" data-name="Line 38" x2="10.349" y2="10.156" transform="translate(3338.44 188.516)" fill="none" stroke="#1a37a5" stroke-miterlimit="10" stroke-width="1"/>
    <line id="Line_39" data-name="Line 39" x2="1.507" y2="1.486" transform="translate(3334.877 185.023)" fill="none" stroke="#1a37a5" stroke-miterlimit="10" stroke-width="1"/>
    <line id="Line_40" data-name="Line 40" x2="1.174" y2="1.143" transform="translate(3332.092 182.311)" fill="none" stroke="#1a37a5" stroke-miterlimit="10" stroke-width="1"/>
  </g>
</svg>