<svg xmlns="http://www.w3.org/2000/svg" width="56" height="56" viewBox="0 0 56 56">
  <g id="icon-stores" transform="translate(-777.41 -6427.164)">
    <line id="Line_24" data-name="Line 24" x2="54" transform="translate(778.41 6440.164)" fill="none" stroke="#003594" stroke-linecap="round" stroke-linejoin="round" stroke-width="2"/>
    <path id="Path_5429" data-name="Path 5429" d="M784.41,6443.164v-15h6v15a3,3,0,0,1-3,3h0A3,3,0,0,1,784.41,6443.164Z" fill="none" stroke="#003594" stroke-linecap="round" stroke-linejoin="round" stroke-width="2"/>
    <path id="Path_5430" data-name="Path 5430" d="M790.41,6443.164v-15h6v15a3,3,0,0,1-3,3h0A3,3,0,0,1,790.41,6443.164Z" fill="none" stroke="#003594" stroke-linecap="round" stroke-linejoin="round" stroke-width="2"/>
    <path id="Path_5431" data-name="Path 5431" d="M796.41,6443.164v-15h6v15a3,3,0,0,1-3,3h0A3,3,0,0,1,796.41,6443.164Z" fill="none" stroke="#003594" stroke-linecap="round" stroke-linejoin="round" stroke-width="2"/>
    <path id="Path_5432" data-name="Path 5432" d="M802.41,6443.164v-15h6v15a3,3,0,0,1-3,3h0A3,3,0,0,1,802.41,6443.164Z" fill="none" stroke="#003594" stroke-linecap="round" stroke-linejoin="round" stroke-width="2"/>
    <path id="Path_5433" data-name="Path 5433" d="M808.41,6443.164v-15h6v15a3,3,0,0,1-3,3h0A3,3,0,0,1,808.41,6443.164Z" fill="none" stroke="#003594" stroke-linecap="round" stroke-linejoin="round" stroke-width="2"/>
    <path id="Path_5434" data-name="Path 5434" d="M814.41,6443.164v-15h6v15a3,3,0,0,1-3,3h0A3,3,0,0,1,814.41,6443.164Z" fill="none" stroke="#003594" stroke-linecap="round" stroke-linejoin="round" stroke-width="2"/>
    <path id="Path_5435" data-name="Path 5435" d="M820.41,6443.164v-15h6v15a3,3,0,0,1-3,3h0A3,3,0,0,1,820.41,6443.164Z" fill="none" stroke="#003594" stroke-linecap="round" stroke-linejoin="round" stroke-width="2"/>
    <path id="Path_5436" data-name="Path 5436" d="M826.41,6443.164v-15h6v15a3,3,0,0,1-3,3h0A3,3,0,0,1,826.41,6443.164Z" fill="none" stroke="#003594" stroke-linecap="round" stroke-linejoin="round" stroke-width="2"/>
    <path id="Path_5437" data-name="Path 5437" d="M778.41,6443.164v-15h6v15a3,3,0,0,1-3,3h0A3,3,0,0,1,778.41,6443.164Z" fill="none" stroke="#003594" stroke-linecap="round" stroke-linejoin="round" stroke-width="2"/>
    <path id="Path_5438" data-name="Path 5438" d="M830.41,6445.931v36.233h-50v-36.233" fill="none" stroke="#003594" stroke-linecap="round" stroke-linejoin="round" stroke-width="2"/>
    <rect id="Rectangle_42" data-name="Rectangle 42" width="14" height="30" transform="translate(812.41 6452.164)" fill="none" stroke="#003594" stroke-linecap="round" stroke-linejoin="round" stroke-width="2"/>
    <rect id="Rectangle_43" data-name="Rectangle 43" width="24" height="24" transform="translate(784.41 6452.164)" fill="none" stroke="#003594" stroke-linecap="round" stroke-linejoin="round" stroke-width="2"/>
    <line id="Line_25" data-name="Line 25" y1="1.184" x2="1.184" transform="translate(797.318 6456.072)" fill="none" stroke="#003594" stroke-linecap="round" stroke-linejoin="round" stroke-width="2"/>
    <line id="Line_26" data-name="Line 26" y1="5.184" x2="5.184" transform="translate(788.318 6461.072)" fill="none" stroke="#003594" stroke-linecap="round" stroke-linejoin="round" stroke-width="2"/>
    <line id="Line_27" data-name="Line 27" y1="4.184" x2="4.184" transform="translate(788.318 6456.072)" fill="none" stroke="#003594" stroke-linecap="round" stroke-linejoin="round" stroke-width="2"/>
    <line id="Line_28" data-name="Line 28" y1="0.184" x2="0.184" transform="translate(795.318 6459.072)" fill="none" stroke="#003594" stroke-linecap="round" stroke-linejoin="round" stroke-width="2"/>
    <circle id="Ellipse_29" data-name="Ellipse 29" cx="0.05" cy="0.05" r="0.05" transform="translate(816.36 6466.114)" fill="none" stroke="#003594" stroke-linecap="round" stroke-linejoin="round" stroke-width="2"/>
  </g>
</svg>
