<svg xmlns="http://www.w3.org/2000/svg" width="60" height="60" viewBox="0 0 60 60">
  <g id="icon-countries" transform="translate(-231.694 -6425.164)">
    <path id="Path_5443" data-name="Path 5443" d="M261.694,6426.164a29.047,29.047,0,0,0-6.671.78,10.26,10.26,0,0,0,1.936,1.211c.867.326,1.576,2.247.952,2.737-.8.627-.469,1.269-.326,1.989.092.463.138.961.631,1.064a.906.906,0,0,0,1.021-.544c.881-1.807,2.474-2.128,3.916-2.441a3.733,3.733,0,0,0,1.935-1.534,11.522,11.522,0,0,0,2.057-2.744A29.139,29.139,0,0,0,261.694,6426.164Z" fill="none" stroke="#003594" stroke-linecap="round" stroke-linejoin="round" stroke-width="2"/>
    <path id="Path_5444" data-name="Path 5444" d="M277.852,6431.08c-1.109.641-2.232,1.438-3.247,2.113a1.028,1.028,0,0,0-.439,1.292c.221.565,2.207.655-3.528,2.653-.429.15-.8.172-.484.674.818,1.3-.187,1.465-1.423,1.475-.571,0-1.358.915-1.462,1.486-.139.76-.957,1.672.37,2.3a2.347,2.347,0,0,0,2.909-.788c.65-1,4.163-3.862,4.472-.738a1.552,1.552,0,0,1,1.671-.307c.637.31,1.112-.173.554-.623-.3-.242-.781-.481-.5-.835.336-.427.711,0,1.067.125,1.729.6,3.622,2.928,4.418,2.7a.933.933,0,0,1,1.073.367c1.539,2.341,4.493.475,4.413,2.057-.1,1.984-3.48,2-5.024,1.279a1.789,1.789,0,0,0-2.235.381c-1.115,1.35-1.829-.444-3.962-.671a.594.594,0,0,1-.482-.729c.2-1.877-3.606-.161-6.648-.253a2.81,2.81,0,0,0-2.716,1.141c-1.383,2.437-5.144,3.269-3.9,5.393.409.7.09,1.33-.285,1.965-1.052,1.783.3,1.54,1.759,4.055a1.764,1.764,0,0,0,1.45.9,25.537,25.537,0,0,0,4.285-.24,16.631,16.631,0,0,1,3.773.344c4.12.159,2.856,9.551,3.294,10.485,1.366,2.917,2.325,7.023,3.547,7.062a6.2,6.2,0,0,0,1.221-.089,28.99,28.99,0,0,0-3.938-44.98Z" fill="none" stroke="#003594" stroke-linecap="round" stroke-linejoin="round" stroke-width="2"/>
    <path id="Path_5445" data-name="Path 5445" d="M241.18,6434.666c-.5.5-.968,1.016-1.427,1.547-.077.089-.154.176-.23.265q-.661.786-1.269,1.617c-.061.084-.12.169-.18.253a29.067,29.067,0,0,0-2.263,3.74c-.025.05-.052.1-.077.151q-.5,1-.921,2.043c-.013.031-.025.063-.037.094a28.86,28.86,0,0,0-1.81,6.86h0c-.108.8-.192,1.611-.234,2.431,1.451.26,2.976.622,3.672,2.285.308.738,1.21,1.479,1.972,1.139,1-.445.957.138,1.129.625.932,2.635-2.114,1.514-.806,5.855a6.552,6.552,0,0,0,3.765,4.651,1.436,1.436,0,0,1,.94,1.176,17.137,17.137,0,0,1,.375,4.717,7.9,7.9,0,0,0,.27,4.056q.87.669,1.792,1.272l.037.023.156.1c.6.39,1.221.763,1.856,1.107h0c.151-.223.491-.6.347-.829-.69-1.1.485-1.659.957-1.853.945-.389,2.621-2.95,3.137-3.959.491-.961.141-2.455,1.658-2.818,3.442-.824,1.126-3.847,3.146-5.922.621-.637.914-1.757-.007-2.244-.86-.456-1.72-1.339-2.938-.947a.5.5,0,0,1-.645-.3c-.324-.69-.8-.717-1.386-.28a.941.941,0,0,1-1.22-.13c-.286-.215-.252-.472-.167-.8a1.971,1.971,0,0,0-1.736-2.593c-2.135-.44-3.925-1.928-4.584-2.026-.259-.038-5.039-1.223-5.292-1.2-.513-1.584-2.492-2.237-3.05-3.523,1.283-.813,3.725-2.958,3.8-4.632.106-2.243,2.822-3.391,4.888-4.377,1.27-.607,2.224-2.066,4-1.421.143.052.484-.212.631-.4.179-.232-.2-.338-.248-.506-.283-.932-1.194-.382-1.918-.7,1.433-1.129,3-1.022,4.9-1.5.332-.084.973-.387.409-.752-.734-.475-.693-1.166-.865-1.789-.518-1.867-1.274.588-2.172-.594-.813-1.072-2.048-1.191-2.64-.055-.6,1.157-1.845,1.8-2.245,3.042-.286.885-1.4.452-1.2-.151.526-1.577-1.7-1.571-2.271-2.754h0Z" fill="none" stroke="#003594" stroke-linecap="round" stroke-linejoin="round" stroke-width="2"/>
    <circle id="Ellipse_30" data-name="Ellipse 30" cx="29" cy="29" r="29" transform="translate(232.694 6426.164)" fill="none" stroke="#003594" stroke-linecap="round" stroke-linejoin="round" stroke-width="2"/>
  </g>
</svg>
