<svg xmlns="http://www.w3.org/2000/svg" width="44" height="60" viewBox="0 0 44 60">
  <g id="icon-clients" transform="translate(-477.838 -6425.163)">
    <path id="Path_5439" data-name="Path 5439" d="M500.593,6439.4l1.574,4.69h4.874a.8.8,0,0,1,.483,1.428l-3.918,3,1.443,4.6a.8.8,0,0,1-1.211.894l-4-2.752-4,2.752a.8.8,0,0,1-1.211-.894l1.443-4.6-3.918-3a.8.8,0,0,1,.483-1.428h4.875l1.574-4.69A.8.8,0,0,1,500.593,6439.4Z" fill="none" stroke="#003594" stroke-linecap="round" stroke-linejoin="round" stroke-width="2"/>
    <line id="Line_29" data-name="Line 29" transform="translate(499.838 6432.164)" fill="none" stroke="#003594" stroke-linecap="round" stroke-linejoin="round" stroke-width="2"/>
    <line id="Line_30" data-name="Line 30" transform="translate(499.838 6462.164)" fill="none" stroke="#003594" stroke-linecap="round" stroke-linejoin="round" stroke-width="2"/>
    <line id="Line_31" data-name="Line 31" transform="translate(514.838 6447.164)" fill="none" stroke="#003594" stroke-linecap="round" stroke-linejoin="round" stroke-width="2"/>
    <line id="Line_32" data-name="Line 32" transform="translate(484.838 6447.164)" fill="none" stroke="#003594" stroke-linecap="round" stroke-linejoin="round" stroke-width="2"/>
    <line id="Line_33" data-name="Line 33" transform="translate(495.956 6432.675)" fill="none" stroke="#003594" stroke-linecap="round" stroke-linejoin="round" stroke-width="2"/>
    <line id="Line_34" data-name="Line 34" transform="translate(503.72 6461.652)" fill="none" stroke="#003594" stroke-linecap="round" stroke-linejoin="round" stroke-width="2"/>
    <line id="Line_35" data-name="Line 35" transform="translate(514.327 6443.281)" fill="none" stroke="#003594" stroke-linecap="round" stroke-linejoin="round" stroke-width="2"/>
    <line id="Line_36" data-name="Line 36" transform="translate(485.349 6451.046)" fill="none" stroke="#003594" stroke-linecap="round" stroke-linejoin="round" stroke-width="2"/>
    <line id="Line_37" data-name="Line 37" transform="translate(492.338 6434.173)" fill="none" stroke="#003594" stroke-linecap="round" stroke-linejoin="round" stroke-width="2"/>
    <line id="Line_38" data-name="Line 38" transform="translate(507.338 6460.154)" fill="none" stroke="#003594" stroke-linecap="round" stroke-linejoin="round" stroke-width="2"/>
    <line id="Line_39" data-name="Line 39" transform="translate(512.828 6439.664)" fill="none" stroke="#003594" stroke-linecap="round" stroke-linejoin="round" stroke-width="2"/>
    <line id="Line_40" data-name="Line 40" transform="translate(486.848 6454.664)" fill="none" stroke="#003594" stroke-linecap="round" stroke-linejoin="round" stroke-width="2"/>
    <line id="Line_41" data-name="Line 41" transform="translate(489.231 6436.557)" fill="none" stroke="#003594" stroke-linecap="round" stroke-linejoin="round" stroke-width="2"/>
    <line id="Line_42" data-name="Line 42" transform="translate(510.445 6457.77)" fill="none" stroke="#003594" stroke-linecap="round" stroke-linejoin="round" stroke-width="2"/>
    <line id="Line_43" data-name="Line 43" transform="translate(510.445 6436.557)" fill="none" stroke="#003594" stroke-linecap="round" stroke-linejoin="round" stroke-width="2"/>
    <line id="Line_44" data-name="Line 44" transform="translate(489.231 6457.77)" fill="none" stroke="#003594" stroke-linecap="round" stroke-linejoin="round" stroke-width="2"/>
    <line id="Line_45" data-name="Line 45" transform="translate(486.848 6439.664)" fill="none" stroke="#003594" stroke-linecap="round" stroke-linejoin="round" stroke-width="2"/>
    <line id="Line_46" data-name="Line 46" transform="translate(512.828 6454.664)" fill="none" stroke="#003594" stroke-linecap="round" stroke-linejoin="round" stroke-width="2"/>
    <line id="Line_47" data-name="Line 47" transform="translate(507.338 6434.173)" fill="none" stroke="#003594" stroke-linecap="round" stroke-linejoin="round" stroke-width="2"/>
    <line id="Line_48" data-name="Line 48" transform="translate(492.338 6460.154)" fill="none" stroke="#003594" stroke-linecap="round" stroke-linejoin="round" stroke-width="2"/>
    <line id="Line_49" data-name="Line 49" transform="translate(485.349 6443.281)" fill="none" stroke="#003594" stroke-linecap="round" stroke-linejoin="round" stroke-width="2"/>
    <line id="Line_50" data-name="Line 50" transform="translate(514.327 6451.046)" fill="none" stroke="#003594" stroke-linecap="round" stroke-linejoin="round" stroke-width="2"/>
    <line id="Line_51" data-name="Line 51" transform="translate(503.72 6432.675)" fill="none" stroke="#003594" stroke-linecap="round" stroke-linejoin="round" stroke-width="2"/>
    <line id="Line_52" data-name="Line 52" transform="translate(495.956 6461.652)" fill="none" stroke="#003594" stroke-linecap="round" stroke-linejoin="round" stroke-width="2"/>
    <path id="Path_5440" data-name="Path 5440" d="M503.6,6428.27q5.085-2.454,6.944,2.877,5.637-.322,5.315,5.314,5.331,1.86,2.876,6.945,4.213,3.758,0,7.516,2.455,5.084-2.876,6.944.323,5.637-5.315,5.315-1.86,5.331-6.944,2.876-3.758,4.214-7.516,0-5.085,2.454-6.944-2.876-5.637.321-5.315-5.315-5.331-1.86-2.876-6.944-4.214-3.759,0-7.516-2.455-5.084,2.876-6.945-.323-5.635,5.315-5.314,1.86-5.331,6.944-2.877Q499.837,6424.056,503.6,6428.27Z" fill="none" stroke="#003594" stroke-linecap="round" stroke-linejoin="round" stroke-width="2"/>
    <path id="Path_5441" data-name="Path 5441" d="M485.811,6462.611l-4.876,18.2,8.573-4.95,4.95,8.307,4.4-16.146" fill="none" stroke="#003594" stroke-linecap="round" stroke-linejoin="round" stroke-width="2"/>
    <path id="Path_5442" data-name="Path 5442" d="M500.82,6468.017l4.4,16.146,4.95-8.307,8.573,4.95-4.876-18.2" fill="none" stroke="#003594" stroke-linecap="round" stroke-linejoin="round" stroke-width="2"/>
  </g>
</svg>
