<?xml version="1.0" encoding="UTF-8"?><svg id="Layer_2" xmlns="http://www.w3.org/2000/svg" xmlns:xlink="http://www.w3.org/1999/xlink" viewBox="0 0 40 24"><defs><style>.cls-1{fill:#f0f7ff;}.cls-2{clip-path:url(#clippath-1);}.cls-3{fill:#ca001c;}.cls-4{fill:#e1001f;}.cls-5{fill:#f6d728;}.cls-6{clip-path:url(#clippath);}.cls-7{fill:none;}.cls-8{fill:#f6d928;}</style><clipPath id="clippath"><rect class="cls-7" width="40" height="24"/></clipPath><clipPath id="clippath-1"><rect class="cls-7" width="40" height="24"/></clipPath></defs><g id="Layer_1-2"><g id="GERMANY"><g class="cls-6"><rect width="40" height="8"/><rect class="cls-4" y="8" width="40" height="8"/><rect class="cls-8" y="16" width="40" height="8"/><g class="cls-2"><path class="cls-5" d="M14.46,5.68V15.28c0,3.6,4.7,3.17,5.54,4.6,.84-1.44,5.54-1,5.54-4.6V5.68H14.46Z"/><path d="M20,19.96l-.03-.05c-.3-.51-1.09-.78-2-1.09-1.58-.54-3.54-1.21-3.54-3.53V5.65h11.14V15.28c0,2.32-1.96,3-3.54,3.53-.91,.31-1.7,.58-2,1.09l-.03,.05h0ZM14.5,5.72V15.28c0,2.27,1.86,2.91,3.5,3.46,.9,.31,1.68,.57,2.01,1.07,.33-.5,1.11-.76,2.01-1.07,1.64-.56,3.49-1.19,3.49-3.46V5.72H14.5Z"/><path d="M19.64,7.06c.06,.28-.05,.97-.2,1.21-.14,.23-.5,.66-.53,1.09-.14,2.16,.64,5.29,1.09,7.54,.45-2.24,1.23-5.38,1.09-7.54-.14-2.15-.42-2.73-.42-2.73l-1.03,.44Z"/><path class="cls-3" d="M19.75,7.38c-.52-.04-.96-.15-1.31-.32,.15,.19,.49,.34,1.01,.46l.31-.14Z"/><path d="M19.45,7.5c-.53-.08-.87-.24-1.03-.43,.37,.14,.81,.25,1.33,.28v.04c-.52-.04-.97-.15-1.32-.32,.17,.16,.5,.32,1.02,.43h0Z"/><path class="cls-3" d="M19.58,6.2c-.84-.43-1.34,.06-.78,.84,.06-.14,.59-.35,.84,.35-.13,.07-.44,.08-.92,.03,.25,.2,1.01,.23,1.14,.14,.14-.09-.25-.8-.25-.8l-.03-.55Z"/><path d="M19.54,7.61c-.29,0-.67-.06-.84-.19,.49,.03,.8,.02,.93-.06-.16-.39-.4-.45-.53-.45h0c-.15,0-.26,.07-.29,.13-.28-.35-.34-.68-.18-.87,.17-.21,.54-.21,.96,0l-.02,.03c-.4-.2-.76-.21-.91-.02-.15,.18-.09,.49,.15,.82,0-.07,.14-.15,.29-.15,.14,0,.39,.07,.55,.5-.14,.1-.45,.11-.94,.05,.25,.16,1,.2,1.14,.11,.09-.06-.11-.51-.26-.78,.1,.11,.42,.72,.28,.81-.05,.03-.18,.05-.33,.05h0Z"/><path d="M20.62,6.8c.14-.03,.36-.11,.53-.28-.31,0-.87-.18-1.09-.29-.22-.12-.61-.37-.61,.11s.5,.86,.42,1.26l.76-.8Z"/><path class="cls-1" d="M19.92,6.48s-.28-.14-.34-.2c-.05-.06-.14,.32,.11,.43,.04-.1,.11-.17,.23-.23h0Z"/><path d="M19.72,6.31c-.13,.04-.16,.14-.09,.32,.02-.13,.11-.22,.28-.26l-.2-.06Z"/><path d="M21.23,10.22v3.4l3.75,3.16V8.35c0-.65-.13-1.09-.39-1.32v1.75l-3.36,1.44Z"/><polygon class="cls-5" points="21.98 16.41 21.88 16.41 21.88 9.22 21.98 9.22 21.98 16.41 21.98 16.41"/><polygon class="cls-5" points="22.77 16.41 22.66 16.41 22.66 9.22 22.77 9.22 22.77 16.41 22.77 16.41"/><polygon class="cls-5" points="23.55 16.41 23.44 16.41 23.44 9.22 23.55 9.22 23.55 16.41 23.55 16.41"/><polygon class="cls-5" points="24.33 16.41 24.23 16.41 24.23 9.22 24.33 9.22 24.33 16.41 24.33 16.41"/><path d="M20.5,10.86c2.52,0,3.58-.84,4.11-1.47v-2.33c.28-.08,.43-.29,.45-.64-.78,.66-2.01-.89-2.74,.72,.39,.8,1.18,.72,1.45,.26,.56,.49,.11,2.33-3.27,2.3v1.15Z"/><path class="cls-3" d="M21.43,16.49c-.2,.26-.03,.49,.14,.58-.06-.17-.03-.34,.08-.49l-.23-.09Z"/><path d="M21.58,17.07c-.11-.03-.22-.12-.25-.26-.02-.1,0-.22,.08-.32l.03,.02c-.07,.1-.1,.19-.08,.29,.03,.12,.13,.22,.21,.25-.08-.16-.05-.32,.06-.48-.08,.17-.11,.33-.05,.5h0Z"/><path class="cls-3" d="M22.41,17.47c.02,.11-.04,.26-.17,.43,.34-.09,.48-.21,.36-.4l-.2-.03Z"/><path d="M22.24,17.92c.11-.19,.16-.34,.14-.45h.04c.02,.12-.04,.27-.17,.44,.21-.09,.33-.15,.36-.23,.02-.05,.01-.1-.02-.17,.07,.06,.08,.12,.06,.18-.04,.1-.17,.17-.4,.23h0Z"/><path class="cls-3" d="M23.52,17.04c.06,.14,.07,.29,.03,.46,.25-.23,.33-.55,.14-.61l-.17,.14Z"/><path d="M23.56,17.51c0-.18,0-.34-.06-.47h.03c.06,.12,.07,.28,.03,.46,.14-.17,.24-.37,.21-.49-.01-.05-.04-.09-.09-.1,.07-.02,.11,.03,.13,.09,.03,.14-.07,.35-.25,.51h0Z"/><path class="cls-3" d="M23.5,16.01c.09,.02,.19,.11,.28,.29,.03-.32-.03-.49-.31-.55l.03,.26Z"/><path d="M23.79,16.3c-.12-.16-.21-.25-.3-.27v-.03c.11,.02,.2,.12,.3,.29,0-.33-.08-.47-.33-.52,.31,.03,.36,.23,.33,.53h0Z"/><path class="cls-3" d="M21.03,15.06l1.32,1.24s-.5,.11-.7,.11-.36,.06-.31,.12c.06,.06,.17,.06,.22,.14,.05,.09,.14,.2,.25,.09,.11-.11,.5-.23,.5-.23,0,0,0,.66-.03,.74-.03,.09-.11,.26-.05,.26s.05-.03,.28,0c.22,.03,.2,.09,.14-.26-.06-.34-.03-.72-.03-.72,0,0,.5,.34,.67,.57,.17,.23,.14,.06,.22-.03,.09-.08,.2-.11,.28-.14,.08-.03-.22-.12-.31-.17-.08-.06-.73-.43-.73-.43,0,0,.36-.11,.59-.15q.22-.03,.2-.14c-.03-.12,0-.23,0-.29s-.03-.11-.17,0c-.14,.11-.78,.4-.78,.4l-1.09-1.49-.47,.37Z"/><path d="M22.66,17.57s-.04,0-.06,0h-.09c-.16-.03-.2-.02-.24-.02h-.07s0-.1,.04-.2l.03-.07c.02-.07,.03-.56,.03-.74-.02,.03-.37,.14-.47,.24-.03,.03-.07,.06-.12,.05-.07,0-.11-.07-.16-.14-.03-.05-.08-.07-.12-.09-.04-.01-.07-.03-.1-.06h0v-.05c.02-.06,.19-.09,.33-.09,.19,0,.69-.11,.69-.11l-1.32-1.21,.02-.03,1.31,1.24s-.52,.15-.71,.15c-.17,0-.29,.04-.3,.07,.03,.04,.06,.05,.09,.06,.05,.02,.1,.04,.14,.1,.04,.06,.09,.12,.14,.12,.03,0,.06,0,.09-.04,.11-.12,.49-.23,.51-.23,.02,.05,.02,.68,0,.77l-.03,.07s-.05,.15-.04,.16c.07,0,.12-.02,.28,0l.09,.02s.06,.01,.07,0c0,0,0-.06-.01-.13l-.02-.13c-.05-.34-.03-.72-.03-.72,.05,0,.53,.34,.7,.56,.06,.09,.08,.1,.11,.11,.01,0,.02-.02,.03-.05,.02-.03,.03-.06,.05-.09,.08-.08,.18-.11,.26-.14,.03-.02-.06-.06-.12-.08-.06-.03-.13-.05-.16-.07-.09-.06-.73-.43-.73-.43,0-.03,.37-.15,.59-.18,.11-.01,.18-.02,.19-.04,0,0,0-.04-.01-.08-.02-.08-.01-.17,0-.23,0-.03,0-.05,0-.06-.03-.05-.06-.06-.14,.01-.14,.12-.76,.39-.79,.4l-1.11-1.5,1.12,1.47s.62-.29,.76-.4c.07-.06,.13-.08,.16-.06,.02,0,.03,.03,.03,.08,0,.01,0,.04,0,.06,0,.06-.02,.14,0,.22,.01,.05,.02,.08,0,.11-.02,.03-.07,.04-.22,.05-.2,.03-.53,.13-.58,.15,.07,0,.65,.34,.73,.4,.03,.02,.09,.05,.15,.07,.13,.06,.18,.07,.18,.1l-.06,.04c-.08,.02-.17,.05-.24,.12-.02,.02-.03,.06-.05,.08-.02,.03-.03,.07-.06,.07-.03,0-.07-.03-.14-.12-.15-.22-.61-.53-.66-.57,.02,.04,0,.39,.05,.7l.02,.13c.02,.1,.03,.14,0,.16,0,0-.02,.01-.04,.01h0Z"/><path d="M20,18.79l.59-.72c.67,.42,1.16,.31,1.48-.34-1.01,.17-1.48-.77-1.43-2.82l.76,1.2v-1.12l.92,.11-2.43-2.67,.11,6.35Z"/><path d="M18.77,10.22v3.4l-3.75,3.16V8.35c0-.65,.13-1.09,.39-1.32v1.75l3.36,1.44Z"/><polygon class="cls-5" points="18.12 16.41 18.02 16.41 18.02 9.22 18.12 9.22 18.12 16.41 18.12 16.41"/><polygon class="cls-5" points="17.34 16.41 17.24 16.41 17.24 9.22 17.34 9.22 17.34 16.41 17.34 16.41"/><polygon class="cls-5" points="16.56 16.41 16.45 16.41 16.45 9.22 16.56 9.22 16.56 16.41 16.56 16.41"/><polygon class="cls-5" points="15.77 16.41 15.67 16.41 15.67 9.22 15.77 9.22 15.77 16.41 15.77 16.41"/><path d="M19.5,10.86c-2.52,0-3.58-.84-4.11-1.47v-2.33c-.28-.08-.43-.29-.45-.64,.78,.66,2.01-.89,2.74,.72-.39,.8-1.17,.72-1.45,.26-.56,.49-.11,2.33,3.27,2.3v1.15Z"/><path class="cls-3" d="M18.57,16.49c.2,.26,.03,.49-.14,.58,.06-.17,.03-.34-.08-.49l.22-.09Z"/><path d="M18.44,17.09c.03-.19,0-.34-.11-.49,.14,.14,.17,.3,.11,.48,.06-.06,.16-.16,.19-.28,.02-.1,0-.2-.08-.29l.03-.02c.08,.1,.11,.22,.08,.32-.03,.14-.14,.24-.23,.28h0Z"/><path class="cls-3" d="M17.59,17.47c-.02,.11,.04,.26,.17,.43-.34-.09-.47-.21-.36-.4l.2-.03Z"/><path d="M17.78,17.89c-.25-.03-.38-.1-.42-.2-.03-.06-.02-.12,.02-.2,0,.08-.02,.14,0,.19,.04,.08,.16,.15,.38,.21-.15-.14-.21-.29-.19-.41h.04c-.02,.11,.03,.26,.17,.42h0Z"/><path class="cls-3" d="M16.48,17.04c-.06,.14-.06,.29-.03,.46-.25-.23-.34-.55-.14-.61l.17,.14Z"/><path d="M16.46,17.5c-.2-.15-.31-.35-.27-.49,.01-.06,.05-.11,.11-.12-.04,.05-.07,.08-.08,.13-.03,.12,.07,.32,.24,.47-.07-.16-.06-.32,0-.45h.03c-.06,.14-.06,.29-.03,.46h0Z"/><path class="cls-3" d="M16.5,16.01c-.09,.02-.19,.11-.28,.29-.03-.32,.03-.49,.31-.55l-.03,.26Z"/><path d="M16.24,16.3c-.06-.31-.02-.51,.29-.57-.24,.09-.32,.23-.29,.56,.06-.18,.16-.28,.26-.3v.03c-.08,.02-.17,.11-.26,.28h0Z"/><path class="cls-3" d="M18.96,15.06l-1.31,1.24s.5,.11,.7,.11,.36,.06,.31,.12c-.05,.06-.17,.06-.23,.14-.05,.09-.14,.2-.25,.09-.11-.11-.5-.23-.5-.23,0,0,0,.66,.03,.74,.03,.09,.11,.26,.05,.26-.05,0-.05-.03-.28,0-.22,.03-.2,.09-.14-.26,.05-.34,.03-.72,.03-.72,0,0-.5,.34-.67,.57-.17,.23-.14,.06-.23-.03-.08-.08-.2-.11-.28-.14-.08-.03,.22-.12,.31-.17,.08-.06,.73-.43,.73-.43,0,0-.36-.11-.59-.15q-.22-.03-.2-.14c.03-.12,0-.23,0-.29s.03-.11,.17,0c.14,.11,.78,.4,.78,.4l1.09-1.49,.47,.37Z"/><path d="M17.33,17.57s-.03,0-.03-.01c-.02-.02-.01-.06,0-.16l.02-.13c.05-.32,.03-.67,.03-.71-.02,.05-.48,.37-.64,.58-.07,.09-.11,.12-.14,.12-.03,0-.05-.04-.06-.07-.01-.03-.03-.06-.05-.08-.07-.07-.16-.1-.24-.13l-.06-.04s.04-.05,.17-.1c.06-.02,.12-.05,.15-.07,.08-.06,.64-.38,.72-.43-.06,0-.37-.09-.57-.12-.14-.02-.19-.02-.22-.05-.02-.03,0-.06,0-.11,.02-.08,.01-.16,0-.22,0-.03,0-.05,0-.06,0-.05,.02-.07,.03-.08,.04-.02,.09,0,.16,.06,.14,.11,.77,.4,.78,.4l1.07-1.49-1.06,1.52s-.67-.28-.81-.4c-.08-.07-.11-.07-.12-.06-.02,.06-.01,.08-.01,.11,0,.06,.02,.15,0,.23-.01,.04-.02,.07,0,.08,.01,.02,.08,.03,.19,.04,.22,.03,.59,.14,.59,.14,0,.03-.64,.41-.72,.46-.03,.02-.1,.05-.16,.07-.06,.02-.15,.06-.15,.08,.11,.03,.21,.06,.29,.14,.03,.03,.04,.06,.05,.09,.01,.03,.02,.05,.03,.05,.02,0,.04-.02,.11-.11,.17-.23,.65-.56,.68-.58,.02,.02,.05,.4,0,.74l-.02,.13c-.01,.07-.02,.12-.02,.13,0,0,.04,0,.07,0l.09-.02c.16-.02,.21,0,.24,0,.05,0,.01-.11,0-.16l-.03-.07c-.03-.09-.03-.73-.03-.75,.04-.01,.42,.1,.53,.22,.03,.03,.06,.05,.09,.04,.05,0,.1-.06,.14-.12,.04-.06,.09-.08,.14-.1,.03-.01,.07-.03,.09-.05,0-.04-.13-.08-.29-.08-.2,0-.68-.11-.7-.12l1.31-1.27,.02,.03-1.31,1.24s.5,.09,.69,.09c.14,0,.31,.03,.33,.09h0l-.02,.05s-.06,.04-.1,.06c-.05,.02-.09,.04-.12,.09-.04,.07-.09,.13-.16,.14-.04,0-.08-.01-.12-.05-.11-.11-.49-.23-.49-.23,.02,.17,.03,.66,.05,.73l.03,.07c.04,.1,.06,.17,.04,.2h-.07s-.08,0-.23,.02h-.09s-.05,.02-.06,.02h0Z"/><path d="M20,18.79l-.59-.72c-.67,.42-1.16,.31-1.48-.34,1,.17,1.48-.77,1.42-2.82l-.75,1.2v-1.12l-.93,.11,2.43-2.67-.11,6.35Z"/></g></g></g></g></svg>