<?xml version="1.0" encoding="UTF-8"?><svg id="Layer_2" xmlns="http://www.w3.org/2000/svg" xmlns:xlink="http://www.w3.org/1999/xlink" viewBox="0 0 40 24"><defs><style>.cls-1{fill:#f7de29;}.cls-2{fill:#cb1d23;}.cls-3{clip-path:url(#clippath);}.cls-4{fill:none;}</style><clipPath id="clippath"><rect class="cls-4" width="40" height="24"/></clipPath></defs><g id="Layer_1-2"><g id="CHINA"><g class="cls-3"><rect class="cls-2" width="40" height="24"/><polygon class="cls-1" points="3.85 8.69 4.6 6.29 2.62 4.8 5.07 4.8 5.83 2.41 6.59 4.8 9.04 4.81 7.06 6.29 7.81 8.69 5.83 7.21 3.85 8.69"/><polygon class="cls-1" points="10.67 9.98 11.49 10.33 12.07 9.62 12.01 10.54 12.83 10.88 11.97 11.11 11.9 12.01 11.43 11.24 10.57 11.46 11.14 10.76 10.67 9.98"/><polygon class="cls-1" points="15.14 5.38 14.26 5.22 13.84 6.03 13.72 5.12 12.84 4.96 13.64 4.56 13.52 3.65 14.14 4.31 14.94 3.91 14.52 4.72 15.14 5.38"/><polygon class="cls-1" points="13.28 9.48 13.55 8.61 12.83 8.07 13.72 8.07 14 7.19 14.27 8.07 15.17 8.07 14.45 8.61 14.72 9.48 14 8.94 13.28 9.48"/><polygon class="cls-1" points="10.71 1.52 11.52 1.91 12.13 1.24 12.02 2.15 12.83 2.54 11.95 2.72 11.84 3.63 11.41 2.83 10.54 2.99 11.14 2.32 10.71 1.52"/></g></g></g></svg>