<?xml version="1.0" encoding="UTF-8"?><svg id="Layer_2" xmlns="http://www.w3.org/2000/svg" xmlns:xlink="http://www.w3.org/1999/xlink" viewBox="0 0 40 24"><defs><style>.cls-1{fill:#fff;}.cls-2{fill:#cb001c;}.cls-3{clip-path:url(#clippath);}.cls-4{fill:none;}.cls-5{fill:#2a3560;}</style><clipPath id="clippath"><rect class="cls-4" width="40" height="24"/></clipPath></defs><g id="Layer_1-2"><g id="USA"><g class="cls-3"><rect class="cls-2" y="22.15" width="40" height="1.85"/><rect class="cls-1" y="20.31" width="40" height="1.85"/><rect class="cls-2" y="18.46" width="40" height="1.84"/><rect class="cls-1" y="16.62" width="40" height="1.85"/><rect class="cls-2" y="14.77" width="40" height="1.85"/><rect class="cls-1" y="12.93" width="40" height="1.84"/><rect class="cls-2" y="11.08" width="40" height="1.85"/><rect class="cls-1" y="9.23" width="40" height="1.84"/><rect class="cls-2" y="7.39" width="40" height="1.85"/><rect class="cls-1" y="5.54" width="40" height="1.85"/><rect class="cls-2" y="3.69" width="40" height="1.85"/><rect class="cls-1" y="1.85" width="40" height="1.85"/><rect class="cls-2" width="40" height="1.85"/><rect class="cls-5" width="18.27" height="12.93"/><polygon class="cls-1" points="1.65 1.42 1.81 1.91 2.31 1.91 1.9 2.22 2.06 2.7 1.65 2.4 1.25 2.7 1.4 2.22 1 1.91 1.49 1.91 1.65 1.42"/><polygon class="cls-1" points="1.65 3.58 1.81 4.07 2.31 4.07 1.9 4.37 2.06 4.86 1.65 4.56 1.25 4.86 1.4 4.37 1 4.07 1.49 4.07 1.65 3.58"/><polygon class="cls-1" points="1.65 5.74 1.81 6.23 2.31 6.23 1.9 6.53 2.06 7.02 1.65 6.72 1.25 7.02 1.4 6.53 1 6.23 1.49 6.23 1.65 5.74"/><polygon class="cls-1" points="1.65 7.9 1.81 8.39 2.31 8.39 1.9 8.69 2.06 9.17 1.65 8.87 1.25 9.17 1.4 8.69 1 8.39 1.49 8.39 1.65 7.9"/><polygon class="cls-1" points="1.65 10.05 1.81 10.54 2.31 10.54 1.9 10.84 2.06 11.33 1.65 11.03 1.25 11.33 1.4 10.84 1 10.54 1.49 10.54 1.65 10.05"/><polygon class="cls-1" points="3.11 2.56 3.26 3.05 3.76 3.05 3.36 3.35 3.51 3.84 3.11 3.54 2.71 3.84 2.86 3.35 2.46 3.05 2.96 3.05 3.11 2.56"/><polygon class="cls-1" points="3.11 4.72 3.26 5.21 3.76 5.21 3.36 5.51 3.51 6 3.11 5.7 2.71 6 2.86 5.51 2.46 5.21 2.96 5.21 3.11 4.72"/><polygon class="cls-1" points="3.11 6.88 3.26 7.36 3.76 7.36 3.36 7.67 3.51 8.15 3.11 7.85 2.71 8.15 2.86 7.67 2.46 7.36 2.96 7.36 3.11 6.88"/><polygon class="cls-1" points="3.11 9.03 3.26 9.52 3.76 9.52 3.36 9.82 3.51 10.31 3.11 10.01 2.71 10.31 2.86 9.82 2.46 9.52 2.96 9.52 3.11 9.03"/><polygon class="cls-1" points="4.59 1.42 4.74 1.91 5.24 1.91 4.84 2.22 5 2.7 4.59 2.4 4.19 2.7 4.34 2.22 3.94 1.91 4.43 1.91 4.59 1.42"/><polygon class="cls-1" points="4.59 3.58 4.74 4.07 5.24 4.07 4.84 4.37 5 4.86 4.59 4.56 4.19 4.86 4.34 4.37 3.94 4.07 4.43 4.07 4.59 3.58"/><polygon class="cls-1" points="4.59 5.74 4.74 6.23 5.24 6.23 4.84 6.53 5 7.02 4.59 6.72 4.19 7.02 4.34 6.53 3.94 6.23 4.43 6.23 4.59 5.74"/><polygon class="cls-1" points="4.59 7.9 4.74 8.39 5.24 8.39 4.84 8.69 5 9.17 4.59 8.87 4.19 9.17 4.34 8.69 3.94 8.39 4.43 8.39 4.59 7.9"/><polygon class="cls-1" points="4.59 10.05 4.74 10.54 5.24 10.54 4.84 10.84 5 11.33 4.59 11.03 4.19 11.33 4.34 10.84 3.94 10.54 4.43 10.54 4.59 10.05"/><polygon class="cls-1" points="6.05 2.56 6.2 3.05 6.71 3.05 6.3 3.35 6.45 3.84 6.05 3.54 5.65 3.84 5.8 3.35 5.4 3.05 5.9 3.05 6.05 2.56"/><polygon class="cls-1" points="6.05 4.72 6.2 5.21 6.71 5.21 6.3 5.51 6.45 6 6.05 5.7 5.65 6 5.8 5.51 5.4 5.21 5.9 5.21 6.05 4.72"/><polygon class="cls-1" points="6.05 6.88 6.2 7.36 6.71 7.36 6.3 7.67 6.45 8.15 6.05 7.85 5.65 8.15 5.8 7.67 5.4 7.36 5.9 7.36 6.05 6.88"/><polygon class="cls-1" points="6.05 9.03 6.2 9.52 6.71 9.52 6.3 9.82 6.45 10.31 6.05 10.01 5.65 10.31 5.8 9.82 5.4 9.52 5.9 9.52 6.05 9.03"/><polygon class="cls-1" points="7.53 1.42 7.69 1.91 8.18 1.91 7.78 2.22 7.94 2.7 7.53 2.4 7.12 2.7 7.28 2.22 6.88 1.91 7.38 1.91 7.53 1.42"/><polygon class="cls-1" points="7.53 3.58 7.69 4.07 8.18 4.07 7.78 4.37 7.94 4.86 7.53 4.56 7.12 4.86 7.28 4.37 6.88 4.07 7.38 4.07 7.53 3.58"/><polygon class="cls-1" points="7.53 5.74 7.69 6.23 8.18 6.23 7.78 6.53 7.94 7.02 7.53 6.72 7.12 7.02 7.28 6.53 6.88 6.23 7.38 6.23 7.53 5.74"/><polygon class="cls-1" points="7.53 7.9 7.69 8.39 8.18 8.39 7.78 8.69 7.94 9.17 7.53 8.87 7.12 9.17 7.28 8.69 6.88 8.39 7.38 8.39 7.53 7.9"/><polygon class="cls-1" points="7.53 10.05 7.69 10.54 8.18 10.54 7.78 10.84 7.94 11.33 7.53 11.03 7.12 11.33 7.28 10.84 6.88 10.54 7.38 10.54 7.53 10.05"/><polygon class="cls-1" points="8.99 2.56 9.15 3.05 9.64 3.05 9.24 3.35 9.39 3.84 8.99 3.54 8.59 3.84 8.74 3.35 8.34 3.05 8.84 3.05 8.99 2.56"/><polygon class="cls-1" points="8.99 4.72 9.15 5.21 9.64 5.21 9.24 5.51 9.39 6 8.99 5.7 8.59 6 8.74 5.51 8.34 5.21 8.84 5.21 8.99 4.72"/><polygon class="cls-1" points="8.99 6.88 9.15 7.36 9.64 7.36 9.24 7.67 9.39 8.15 8.99 7.85 8.59 8.15 8.74 7.67 8.34 7.36 8.84 7.36 8.99 6.88"/><polygon class="cls-1" points="8.99 9.03 9.15 9.52 9.64 9.52 9.24 9.82 9.39 10.31 8.99 10.01 8.59 10.31 8.74 9.82 8.34 9.52 8.84 9.52 8.99 9.03"/><polygon class="cls-1" points="10.47 1.42 10.62 1.91 11.12 1.91 10.72 2.22 10.87 2.7 10.47 2.4 10.07 2.7 10.22 2.22 9.82 1.91 10.31 1.91 10.47 1.42"/><polygon class="cls-1" points="10.47 3.58 10.62 4.07 11.12 4.07 10.72 4.37 10.87 4.86 10.47 4.56 10.07 4.86 10.22 4.37 9.82 4.07 10.31 4.07 10.47 3.58"/><polygon class="cls-1" points="10.47 5.74 10.62 6.23 11.12 6.23 10.72 6.53 10.87 7.02 10.47 6.72 10.07 7.02 10.22 6.53 9.82 6.23 10.31 6.23 10.47 5.74"/><polygon class="cls-1" points="10.47 7.9 10.62 8.39 11.12 8.39 10.72 8.69 10.87 9.17 10.47 8.87 10.07 9.17 10.22 8.69 9.82 8.39 10.31 8.39 10.47 7.9"/><polygon class="cls-1" points="10.47 10.05 10.62 10.54 11.12 10.54 10.72 10.84 10.87 11.33 10.47 11.03 10.07 11.33 10.22 10.84 9.82 10.54 10.31 10.54 10.47 10.05"/><polygon class="cls-1" points="11.93 2.56 12.08 3.05 12.59 3.05 12.18 3.35 12.33 3.84 11.93 3.54 11.53 3.84 11.68 3.35 11.28 3.05 11.78 3.05 11.93 2.56"/><polygon class="cls-1" points="11.93 4.72 12.08 5.21 12.59 5.21 12.18 5.51 12.33 6 11.93 5.7 11.53 6 11.68 5.51 11.28 5.21 11.78 5.21 11.93 4.72"/><polygon class="cls-1" points="11.93 6.88 12.08 7.36 12.59 7.36 12.18 7.67 12.33 8.15 11.93 7.85 11.53 8.15 11.68 7.67 11.28 7.36 11.78 7.36 11.93 6.88"/><polygon class="cls-1" points="11.93 9.03 12.08 9.52 12.59 9.52 12.18 9.82 12.33 10.31 11.93 10.01 11.53 10.31 11.68 9.82 11.28 9.52 11.78 9.52 11.93 9.03"/><polygon class="cls-1" points="13.41 1.42 13.57 1.91 14.06 1.91 13.66 2.22 13.81 2.7 13.41 2.4 13.01 2.7 13.16 2.22 12.76 1.91 13.26 1.91 13.41 1.42"/><polygon class="cls-1" points="13.41 3.58 13.57 4.07 14.06 4.07 13.66 4.37 13.81 4.86 13.41 4.56 13.01 4.86 13.16 4.37 12.76 4.07 13.26 4.07 13.41 3.58"/><polygon class="cls-1" points="13.41 5.74 13.57 6.23 14.06 6.23 13.66 6.53 13.81 7.02 13.41 6.72 13.01 7.02 13.16 6.53 12.76 6.23 13.26 6.23 13.41 5.74"/><polygon class="cls-1" points="13.41 7.9 13.57 8.39 14.06 8.39 13.66 8.69 13.81 9.17 13.41 8.87 13.01 9.17 13.16 8.69 12.76 8.39 13.26 8.39 13.41 7.9"/><polygon class="cls-1" points="13.41 10.05 13.57 10.54 14.06 10.54 13.66 10.84 13.81 11.33 13.41 11.03 13.01 11.33 13.16 10.84 12.76 10.54 13.26 10.54 13.41 10.05"/><polygon class="cls-1" points="14.87 2.56 15.02 3.05 15.52 3.05 15.12 3.35 15.27 3.84 14.87 3.54 14.46 3.84 14.62 3.35 14.22 3.05 14.72 3.05 14.87 2.56"/><polygon class="cls-1" points="14.87 4.72 15.02 5.21 15.52 5.21 15.12 5.51 15.27 6 14.87 5.7 14.46 6 14.62 5.51 14.22 5.21 14.72 5.21 14.87 4.72"/><polygon class="cls-1" points="14.87 6.88 15.02 7.36 15.52 7.36 15.12 7.67 15.27 8.15 14.87 7.85 14.46 8.15 14.62 7.67 14.22 7.36 14.72 7.36 14.87 6.88"/><polygon class="cls-1" points="14.87 9.03 15.02 9.52 15.52 9.52 15.12 9.82 15.27 10.31 14.87 10.01 14.46 10.31 14.62 9.82 14.22 9.52 14.72 9.52 14.87 9.03"/><polygon class="cls-1" points="16.35 1.42 16.51 1.91 17 1.91 16.6 2.22 16.75 2.7 16.35 2.4 15.95 2.7 16.1 2.22 15.7 1.91 16.19 1.91 16.35 1.42"/><polygon class="cls-1" points="16.35 3.58 16.51 4.07 17 4.07 16.6 4.37 16.75 4.86 16.35 4.56 15.95 4.86 16.1 4.37 15.7 4.07 16.19 4.07 16.35 3.58"/><polygon class="cls-1" points="16.35 5.74 16.51 6.23 17 6.23 16.6 6.53 16.75 7.02 16.35 6.72 15.95 7.02 16.1 6.53 15.7 6.23 16.19 6.23 16.35 5.74"/><polygon class="cls-1" points="16.35 7.9 16.51 8.39 17 8.39 16.6 8.69 16.75 9.17 16.35 8.87 15.95 9.17 16.1 8.69 15.7 8.39 16.19 8.39 16.35 7.9"/><polygon class="cls-1" points="16.35 10.05 16.51 10.54 17 10.54 16.6 10.84 16.75 11.33 16.35 11.03 15.95 11.33 16.1 10.84 15.7 10.54 16.19 10.54 16.35 10.05"/></g></g></g></svg>