<?xml version="1.0" encoding="UTF-8"?><svg id="Layer_2" xmlns="http://www.w3.org/2000/svg" xmlns:xlink="http://www.w3.org/1999/xlink" viewBox="0 0 40 24"><defs><style>.cls-1{fill:#fff;}.cls-2{fill:#180087;}.cls-3{fill:#ea0020;}.cls-4{clip-path:url(#clippath);}.cls-5{fill:none;}</style><clipPath id="clippath"><rect class="cls-5" width="40" height="24"/></clipPath></defs><g id="Layer_1-2"><g id="AUSTRALIA"><g class="cls-4"><rect class="cls-2" width="40" height="24"/><polygon class="cls-1" points="10.52 14.7 11.13 16.65 12.99 15.93 11.89 17.63 13.6 18.68 11.62 18.85 11.89 20.88 10.52 19.4 9.15 20.88 9.43 18.85 7.44 18.68 9.15 17.63 8.05 15.93 9.92 16.65 10.52 14.7"/><polygon class="cls-1" points="31.56 18.21 31.86 19.14 32.74 18.79 32.22 19.6 33.04 20.1 32.09 20.18 32.22 21.15 31.56 20.44 30.92 21.15 31.05 20.18 30.1 20.1 30.92 19.6 30.4 18.79 31.28 19.14 31.56 18.21"/><polygon class="cls-1" points="26.31 9.64 26.6 10.57 27.48 10.22 26.96 11.04 27.77 11.53 26.83 11.61 26.96 12.58 26.31 11.87 25.65 12.58 25.78 11.61 24.84 11.53 25.65 11.04 25.13 10.22 26.02 10.57 26.31 9.64"/><polygon class="cls-1" points="31.56 3.78 31.86 4.71 32.74 4.36 32.22 5.17 33.04 5.67 32.09 5.75 32.22 6.72 31.56 6.01 30.92 6.72 31.05 5.75 30.1 5.67 30.92 5.17 30.4 4.36 31.28 4.71 31.56 3.78"/><polygon class="cls-1" points="36.25 8.2 36.53 9.13 37.43 8.78 36.9 9.59 37.71 10.09 36.77 10.17 36.9 11.14 36.25 10.43 35.6 11.14 35.73 10.17 34.78 10.09 35.6 9.59 35.07 8.78 35.96 9.13 36.25 8.2"/><polygon class="cls-1" points="33.67 12.54 33.9 13.12 34.51 13.16 34.05 13.57 34.19 14.17 33.67 13.84 33.16 14.17 33.3 13.57 32.84 13.16 33.44 13.12 33.67 12.54"/><polygon class="cls-1" points="8.77 0 8.77 3.61 0 3.61 0 7.22 8.77 7.22 8.77 10.83 12.27 10.83 12.27 7.22 21.05 7.22 21.05 3.61 12.27 3.61 12.27 0 8.77 0"/><polygon class="cls-1" points="0 0 0 1.21 18.69 10.83 21.05 10.83 21.05 9.61 2.35 0 0 0"/><polygon class="cls-1" points="18.69 0 0 9.61 0 10.83 2.35 10.83 21.05 1.21 21.05 0 18.69 0"/><polygon class="cls-3" points="9.47 0 9.47 4.33 0 4.33 0 6.5 9.47 6.5 9.47 10.83 11.57 10.83 11.57 6.5 21.05 6.5 21.05 4.33 11.57 4.33 11.57 0 9.47 0"/><path class="cls-3" d="M0,0V.81L5.44,3.61h1.57L0,0ZM19.48,0l-7.01,3.61h1.57L21.05,0h-1.57Z"/><path class="cls-3" d="M7.02,7.22L0,10.83H1.57l7.02-3.61h-1.57Zm7.02,0l7.02,3.61v-.81l-5.45-2.8h-1.57Z"/></g></g></g></svg>