<svg xmlns="http://www.w3.org/2000/svg" viewBox="0 0 72.46 72.46"><defs><style>.cls-1{fill:none;stroke:#fff;stroke-linecap:round;stroke-linejoin:round;stroke-width:2px;}</style></defs><g id="Layer_2" data-name="Layer 2"><g id="Layer_1-2" data-name="Layer 1"><circle class="cls-1" cx="24.46" cy="48" r="10.43"/><circle class="cls-1" cx="24.46" cy="48" r="5.21"/><circle class="cls-1" cx="55.75" cy="16.71" r="5.21"/><path class="cls-1" d="M47.93,51.47V44.52l-6.06-2a17.72,17.72,0,0,0-1.22-2.91l2.86-5.73L38.6,29l-5.73,2.86A18.63,18.63,0,0,0,30,30.59l-2-6.06H21l-2,6.06a17.86,17.86,0,0,0-2.91,1.22L10.33,29,5.41,33.86l2.87,5.73A17.72,17.72,0,0,0,7.06,42.5L1,44.52v6.95l6.06,2A17,17,0,0,0,8.28,56.4L5.41,62.13l4.92,4.92,5.73-2.87A17,17,0,0,0,19,65.4l2,6.06h7l2-6.06a17.72,17.72,0,0,0,2.91-1.22l5.73,2.87,4.91-4.92L40.65,56.4a17,17,0,0,0,1.22-2.91Z"/><path class="cls-1" d="M47.15,25.31A11.48,11.48,0,0,0,49.21,27l.25,4.26,4.48,1.2,2.36-3.57a12.22,12.22,0,0,0,5.06-1.34l3.81,1.9,3.28-3.28-1.9-3.81a12.26,12.26,0,0,0,1.34-5.06l3.57-2.36-1.2-4.48L66,10.17a12,12,0,0,0-3.71-3.71L62,2.2,57.56,1,55.2,4.57a12.26,12.26,0,0,0-5.06,1.34L46.33,4,43.05,7.29,45,11.1a12.08,12.08,0,0,0-1.35,5.06L40,18.52,41.24,23l4.26.25A11.48,11.48,0,0,0,47.15,25.31Z"/></g></g></svg>