<svg xmlns="http://www.w3.org/2000/svg" viewBox="0 0 83.34 78.04"><defs><style>.cls-1{fill:#fff;}</style></defs><g id="Layer_2" data-name="Layer 2"><g id="Layer_1-2" data-name="Layer 1"><polygon class="cls-1" points="36.43 42.72 38.93 14.77 41.43 42.72 36.43 42.72"/><polygon class="cls-1" points="40.3 40.63 54.81 53.19 37.55 44.81 40.3 40.63"/><path class="cls-1" d="M42.85,42.72a3.92,3.92,0,1,1-3.92-3.92A3.92,3.92,0,0,1,42.85,42.72Z"/><path class="cls-1" d="M58.55,72.87A1,1,0,0,1,58,71c.69-.42,1.38-.86,2-1.32a1,1,0,1,1,1.15,1.63c-.7.49-1.42,1-2.15,1.4A1,1,0,0,1,58.55,72.87Z"/><path class="cls-1" d="M43.7,78a1,1,0,0,1-.12-2,37.41,37.41,0,0,0,5-1A1,1,0,0,1,49.14,77a39.57,39.57,0,0,1-5.31,1ZM33.18,77.9H33a38,38,0,0,1-5.28-1.19,1,1,0,0,1,.57-1.91,35.57,35.57,0,0,0,5,1.12,1,1,0,0,1-.15,2ZM18.47,72.35a1,1,0,0,1-.54-.16A37.86,37.86,0,0,1,13.59,69a1,1,0,0,1,1.3-1.52A36.11,36.11,0,0,0,19,70.51a1,1,0,0,1,.3,1.38A1,1,0,0,1,18.47,72.35Zm-11.2-11a1,1,0,0,1-.83-.44,39,39,0,0,1-2.67-4.71,1,1,0,1,1,1.8-.86A37.63,37.63,0,0,0,8.1,59.76a1,1,0,0,1-.83,1.55ZM1.51,46.69a1,1,0,0,1-1-.83A38.88,38.88,0,0,1,0,40.47a1,1,0,0,1,1-1H1a1,1,0,0,1,1,1,37.94,37.94,0,0,0,.49,5.11,1,1,0,0,1-.82,1.15ZM2.16,31l-.25,0a1,1,0,0,1-.72-1.21A38.85,38.85,0,0,1,2.9,24.59a1,1,0,0,1,1.3-.54,1,1,0,0,1,.55,1.31,36.58,36.58,0,0,0-1.62,4.87A1,1,0,0,1,2.16,31Zm7-14.09a1,1,0,0,1-.79-1.62,38.39,38.39,0,0,1,3.65-4,1,1,0,1,1,1.38,1.44,36.6,36.6,0,0,0-3.46,3.8A1,1,0,0,1,9.14,16.89ZM21.22,6.83a1,1,0,0,1-.88-.53A1,1,0,0,1,20.75,5,38.21,38.21,0,0,1,25.7,2.76a1,1,0,1,1,.68,1.88,36.91,36.91,0,0,0-4.69,2.07A1,1,0,0,1,21.22,6.83Z"/><path class="cls-1" d="M36.43,2.53a1,1,0,0,1-.07-2c.85-.06,1.71-.09,2.57-.09a1,1,0,0,1,0,2c-.81,0-1.63,0-2.44.08Z"/><path class="cls-1" d="M73.71,56.57a2.05,2.05,0,0,1-.8-.17,2,2,0,0,1-1-2.63A36,36,0,0,0,45.05,4,2,2,0,0,1,45.72,0,40,40,0,0,1,75.54,55.37,2,2,0,0,1,73.71,56.57Z"/><polygon class="cls-1" points="71.24 44.39 74.23 53.5 83.34 50.51 80.74 55.65 71.63 58.64 68.64 49.52 71.24 44.39"/></g></g></svg>