<svg xmlns="http://www.w3.org/2000/svg" viewBox="0 0 71.3 71.28"><defs><style>.cls-1,.cls-2{fill:none;stroke:#fff;stroke-linecap:round;stroke-linejoin:round;stroke-width:1.28px;}.cls-1{fill-rule:evenodd;}</style></defs><g id="Layer_2" data-name="Layer 2"><g id="Layer_1-2" data-name="Layer 1"><polygon class="cls-1" points="54.33 21.73 16.82 21.73 25.44 12.98 46.01 12.98 54.33 21.73"/><line class="cls-2" x1="25.44" y1="12.98" x2="35.72" y2="42.98"/><line class="cls-2" x1="35.72" y1="12.98" x2="28.44" y2="21.73"/><line class="cls-2" x1="35.72" y1="12.98" x2="43.07" y2="21.73"/><line class="cls-2" x1="46.01" y1="12.98" x2="35.72" y2="42.98"/><polygon class="cls-1" points="35.72 42.98 16.82 21.73 54.33 21.73 35.72 42.98"/><line class="cls-2" x1="35.62" y1="0.64" x2="35.62" y2="6.57"/><line class="cls-2" x1="24.37" y1="2.74" x2="27.3" y2="7.88"/><line class="cls-2" x1="55.73" y1="8.8" x2="51.88" y2="11.76"/><line class="cls-2" x1="47.08" y1="2.4" x2="44.14" y2="7.53"/><line class="cls-2" x1="19.57" y1="11.42" x2="15.72" y2="8.45"/><path class="cls-1" d="M12.38,43.63c-2.5-2.85-3.89-4.73-5-5.35.62-.93-1.12-10.65-1.72-14-.62-3.54-5-3.3-5,.19V40c0,.91,7,12.08,9.12,14.62A9.82,9.82,0,0,0,15.65,58,2.89,2.89,0,0,1,18,60.62h0m11.4,0V57.56C29.41,46,23.93,42.25,19,40.62a44.81,44.81,0,0,1-4-5.09c-2.19-4-4.28-4.78-6.05-3.61a2.85,2.85,0,0,0-.93,3.19,25.73,25.73,0,0,0,5.35,9.48,17.31,17.31,0,0,0,.83,3.21"/><path class="cls-1" d="M33.15,62.27,32.32,69a1.56,1.56,0,0,1-1.39,1.64c-7.71,0-11.51,0-15.41,0A1.66,1.66,0,0,1,13.88,69v-6.7a1.65,1.65,0,0,1,1.65-1.65h16A1.65,1.65,0,0,1,33.15,62.27Z"/><line class="cls-2" x1="28.15" y1="65.62" x2="28.15" y2="65.62"/><path class="cls-1" d="M58.92,43.63c2.49-2.85,3.88-4.73,5-5.35-.62-.93,1.12-10.65,1.71-14,.63-3.54,5-3.3,5,.19V40c0,.91-7,12.08-9.11,14.62A9.89,9.89,0,0,1,55.64,58a2.91,2.91,0,0,0-2.36,2.64h0m-11.4,0V57.56c0-11.56,5.49-15.31,10.47-16.94a46,46,0,0,0,4-5.09c2.19-4,4.28-4.78,6-3.61a2.86,2.86,0,0,1,.93,3.19A25.62,25.62,0,0,1,58,44.59a17.31,17.31,0,0,1-.83,3.21"/><path class="cls-1" d="M38.15,62.27,39,69a1.56,1.56,0,0,0,1.39,1.64c7.7,0,11.66,0,15.57,0A1.66,1.66,0,0,0,57.58,69v-6.7a1.65,1.65,0,0,0-1.66-1.65H39.8A1.65,1.65,0,0,0,38.15,62.27Z"/><line class="cls-2" x1="43.15" y1="65.62" x2="43.15" y2="65.62"/></g></g></svg>