<svg xmlns="http://www.w3.org/2000/svg" viewBox="0 0 70.02 70.28"><defs><style>.cls-1,.cls-2{fill:none;stroke:#fff;stroke-linejoin:round;stroke-width:2px;}.cls-2{stroke-linecap:round;}</style></defs><g id="Layer_2" data-name="Layer 2"><g id="Layer_1-2" data-name="Layer 1"><line class="cls-1" x1="1" x2="1" y2="35.27"/><line class="cls-1" x1="6.04" x2="6.04" y2="35.27"/><line class="cls-1" x1="11.08" x2="11.08" y2="35.27"/><line class="cls-1" x1="12.34" x2="12.34" y2="35.27"/><line class="cls-1" x1="13.6" x2="13.6" y2="35.27"/><line class="cls-1" x1="21.15" x2="21.15" y2="28.07"/><line class="cls-1" x1="22.41" x2="22.41" y2="26.63"/><line class="cls-1" x1="32.49" x2="32.49" y2="22.55"/><line class="cls-1" x1="27.45" x2="27.45" y2="23.57"/><line class="cls-1" x1="35.01" x2="35.01" y2="22.55"/><line class="cls-1" x1="37.53" x2="37.53" y2="22.9"/><line class="cls-1" x1="45.09" x2="45.09" y2="26.69"/><line class="cls-1" x1="46.35" x2="46.35" y2="27.95"/><line class="cls-1" x1="51.39" x2="51.39" y2="35.27"/><line class="cls-1" x1="63.98" x2="63.98" y2="35.27"/><line class="cls-1" x1="69.02" x2="69.02" y2="35.27"/><line class="cls-1" x1="56.43" x2="56.43" y2="35.27"/><line class="cls-1" x1="58.94" x2="58.94" y2="35.27"/><line class="cls-1" x1="1" y1="39.05" x2="1" y2="42.83"/><line class="cls-1" x1="6.04" y1="39.05" x2="6.04" y2="42.83"/><line class="cls-1" x1="63.98" y1="39.05" x2="63.98" y2="42.83"/><line class="cls-1" x1="56.43" y1="39.05" x2="56.43" y2="42.83"/><line class="cls-1" x1="11.08" y1="39.05" x2="11.08" y2="42.83"/><line class="cls-1" x1="69.02" y1="39.05" x2="69.02" y2="42.83"/><line class="cls-2" x1="46.39" y1="52.95" x2="62.72" y2="69.28"/><circle class="cls-2" cx="33.75" cy="40.31" r="17.64"/></g></g></svg>