<svg xmlns="http://www.w3.org/2000/svg" viewBox="0 0 79.41 77.88"><defs><style>.cls-1{fill:#fff;}.cls-2{fill:#7d9dcc;}</style></defs><g id="Layer_2" data-name="Layer 2"><g id="Layer_1-2" data-name="Layer 1"><path class="cls-1" d="M70.07,77.88H9.33a1,1,0,0,1-1-1v-51a1,1,0,0,1,1-1H70.07a1,1,0,0,1,1,1V76.88A1,1,0,0,1,70.07,77.88Zm-59.74-2H69.07v-49H10.33Z"/><polygon class="cls-2" points="78.41 25.82 1 25.82 9.74 1 69.67 1 78.41 25.82"/><path class="cls-1" d="M78.41,26.83H1a1,1,0,0,1-.94-1.34L8.8.67A1,1,0,0,1,9.74,0H69.66a1,1,0,0,1,1,.67l8.74,24.82a1,1,0,0,1-.94,1.34Zm-76-2H77L69,2H10.45Z"/><path class="cls-1" d="M39.7,25.83a9.68,9.68,0,0,1-19.35,0Z"/><path class="cls-1" d="M30,36.5A10.69,10.69,0,0,1,19.35,25.83a1,1,0,0,1,1-1H39.7a1,1,0,0,1,1,1A10.68,10.68,0,0,1,30,36.5Zm-8.62-9.67a8.68,8.68,0,0,0,17.24,0Z"/><path class="cls-1" d="M20.35,25.83A9.68,9.68,0,0,1,1,25.83Z"/><path class="cls-1" d="M10.67,36.5A10.69,10.69,0,0,1,0,25.83a1,1,0,0,1,1-1H20.35a1,1,0,0,1,1,1A10.69,10.69,0,0,1,10.67,36.5ZM2.06,26.83a8.67,8.67,0,0,0,17.23,0Z"/><path class="cls-1" d="M78.41,25.83a9.68,9.68,0,0,1-19.36,0Z"/><path class="cls-1" d="M68.73,36.5A10.69,10.69,0,0,1,58.05,25.83a1,1,0,0,1,1-1H78.41a1,1,0,0,1,1,1A10.69,10.69,0,0,1,68.73,36.5Zm-8.62-9.67a8.68,8.68,0,0,0,17.24,0Z"/><path class="cls-1" d="M59.05,25.83a9.68,9.68,0,0,1-19.35,0Z"/><path class="cls-1" d="M49.38,36.5A10.69,10.69,0,0,1,38.7,25.83a1,1,0,0,1,1-1H59.05a1,1,0,0,1,1,1A10.69,10.69,0,0,1,49.38,36.5Zm-8.62-9.67a8.68,8.68,0,0,0,17.24,0Z"/><path class="cls-1" d="M30,77.88H19.14a1,1,0,0,1-1-1V45a1,1,0,0,1,1-1H30a1,1,0,0,1,1,1v31.9A1,1,0,0,1,30,77.88Zm-9.89-2H29V46H20.14Z"/><path class="cls-1" d="M61.61,57.44H38a1,1,0,0,1-1-1V45a1,1,0,0,1,1-1H61.61a1,1,0,0,1,1,1V56.44A1,1,0,0,1,61.61,57.44ZM39,55.44H60.61V46H39Z"/></g></g></svg>