<svg xmlns="http://www.w3.org/2000/svg" viewBox="0 0 95.2 63.06"><defs><style>.cls-1{fill:none;stroke:#fff;stroke-linecap:round;stroke-linejoin:round;stroke-width:2px;}</style></defs><g id="Layer_2" data-name="Layer 2"><g id="Layer_1-2" data-name="Layer 1"><line class="cls-1" x1="87.77" y1="42.78" x2="94.2" y2="42.78"/><path class="cls-1" d="M84.56,52.42h3.21A6.43,6.43,0,0,0,94.2,46V34.19a6.44,6.44,0,0,0-1.88-4.54l-12-12a12.86,12.86,0,0,0-9.09-3.77H58.85V52.42h9.64"/><path class="cls-1" d="M29.92,52.42H58.85V10.64A9.65,9.65,0,0,0,49.21,1H10.64A9.65,9.65,0,0,0,1,10.64V42.78a9.65,9.65,0,0,0,9.64,9.64h3.21"/><polyline class="cls-1" points="82.95 20.28 65.27 20.28 65.27 33.14 94.1 33.14"/><circle class="cls-1" cx="21.89" cy="54.03" r="8.03"/><circle class="cls-1" cx="21.89" cy="54.03" r="1.61"/><circle class="cls-1" cx="76.52" cy="54.03" r="1.61"/><circle class="cls-1" cx="76.52" cy="54.03" r="8.03"/><line class="cls-1" x1="1" y1="39.56" x2="58.85" y2="39.56"/><line class="cls-1" x1="7.43" y1="33.14" x2="7.43" y2="39.56"/><line class="cls-1" x1="13.85" y1="33.14" x2="13.85" y2="39.56"/><line class="cls-1" x1="20.28" y1="33.14" x2="20.28" y2="39.56"/><line class="cls-1" x1="26.71" y1="33.14" x2="26.71" y2="39.56"/><line class="cls-1" x1="33.14" y1="33.14" x2="33.14" y2="39.56"/><line class="cls-1" x1="39.56" y1="33.14" x2="39.56" y2="39.56"/><line class="cls-1" x1="45.99" y1="33.14" x2="45.99" y2="39.56"/><line class="cls-1" x1="52.42" y1="33.14" x2="52.42" y2="39.56"/></g></g></svg>