<svg xmlns="http://www.w3.org/2000/svg" viewBox="0 0 76.98 76.98"><defs><style>.cls-1{fill:#7d9dcc;}.cls-2{fill:#fff;}</style></defs><g id="Layer_2" data-name="Layer 2"><g id="Layer_1-2" data-name="Layer 1"><rect class="cls-1" x="9.17" y="9.17" width="58.65" height="58.65"/><path class="cls-2" d="M76,77H59.64a1,1,0,0,1,0-2H75V59.65a1,1,0,1,1,2,0V76A1,1,0,0,1,76,77Z"/><path class="cls-2" d="M17.33,77H1a1,1,0,0,1-1-1V59.65a1,1,0,0,1,2,0V75H17.33a1,1,0,0,1,0,2Z"/><path class="cls-2" d="M76,18.34a1,1,0,0,1-1-1V2H59.64a1,1,0,0,1,0-2H76a1,1,0,0,1,1,1V17.34A1,1,0,0,1,76,18.34Z"/><path class="cls-2" d="M1,18.34a1,1,0,0,1-1-1V1A1,1,0,0,1,1,0H17.33a1,1,0,0,1,0,2H2V17.34A1,1,0,0,1,1,18.34Z"/><path class="cls-2" d="M69.56,40.49H7.41a2,2,0,0,1,0-4H69.56a2,2,0,0,1,0,4Z"/></g></g></svg>