<svg xmlns="http://www.w3.org/2000/svg" viewBox="0 0 90.73 90.73"><defs><style>.cls-1,.cls-2{fill:none;stroke:#fff;stroke-linecap:round;stroke-linejoin:round;stroke-width:1.4px;}.cls-2{stroke-dasharray:0 6.29;}</style></defs><g id="Layer_2" data-name="Layer 2"><g id="Layer_1-2" data-name="Layer 1"><circle class="cls-1" cx="45.36" cy="45.36" r="30.8"/><line class="cls-1" x1="45.36" y1="20.72" x2="45.36" y2="0.7"/><polyline class="cls-1" points="39.2 6.86 45.36 0.7 51.52 6.86"/><line class="cls-1" x1="45.36" y1="70" x2="45.36" y2="90.03"/><polyline class="cls-1" points="51.52 83.87 45.36 90.03 39.2 83.87"/><line class="cls-1" x1="70" y1="45.36" x2="90.03" y2="45.36"/><polyline class="cls-1" points="83.87 39.2 90.03 45.36 83.87 51.52"/><line class="cls-1" x1="20.72" y1="45.36" x2="0.7" y2="45.36"/><polyline class="cls-1" points="6.86 51.52 0.7 45.36 6.86 39.2"/><line class="cls-1" x1="62.79" y1="27.94" x2="76.94" y2="13.78"/><polyline class="cls-1" points="68.23 13.78 76.94 13.78 76.94 22.49"/><line class="cls-1" x1="27.94" y1="62.79" x2="13.78" y2="76.94"/><polyline class="cls-1" points="22.49 76.94 13.78 76.94 13.78 68.23"/><line class="cls-1" x1="62.79" y1="62.79" x2="76.94" y2="76.94"/><polyline class="cls-1" points="76.94 68.23 76.94 76.94 68.23 76.94"/><line class="cls-1" x1="27.94" y1="27.94" x2="13.78" y2="13.78"/><polyline class="cls-1" points="13.78 22.49 13.78 13.78 22.49 13.78"/><circle class="cls-2" cx="45.36" cy="45.36" r="20.02"/></g></g></svg>