<svg xmlns="http://www.w3.org/2000/svg" viewBox="0 0 74.79 75.14"><defs><style>.cls-1{fill:#003594;}</style></defs><g id="Layer_2" data-name="Layer 2"><g id="Layer_1-2" data-name="Layer 1"><rect class="cls-1" x="36.4" y="12.9" width="2" height="12.25" transform="translate(-2.5 32.01) rotate(-45)"/><rect class="cls-1" x="31.27" y="18.03" width="12.25" height="2" transform="translate(-2.5 32.02) rotate(-45)"/><path class="cls-1" d="M44.46,47.71a1,1,0,0,1-.79-.39l-7.06-9.14a1,1,0,0,1-.2-.78,1,1,0,0,1,.44-.67L65.14,18.44a1,1,0,0,1,1.28.17l8.11,8.84a1,1,0,0,1,.26.81,1,1,0,0,1-.46.71L45,47.56A1,1,0,0,1,44.46,47.71Zm-5.61-9.89,5.85,7.56L72.25,27.92l-6.73-7.34Z"/><path class="cls-1" d="M30.33,47.71a1,1,0,0,1-.53-.15L.46,29a1,1,0,0,1-.2-1.52l8.11-8.84a1,1,0,0,1,1.29-.17L37.94,36.73a.94.94,0,0,1,.44.67,1,1,0,0,1-.19.78l-7.07,9.14A1,1,0,0,1,30.33,47.71ZM2.54,27.92,30.1,45.38l5.84-7.56L9.28,20.58Z"/><rect class="cls-1" x="36.4" y="37.57" width="2" height="36.57"/><path class="cls-1" d="M37.4,38.57a1,1,0,0,1-.55-.16L8.57,20.12a1,1,0,0,1-.46-.84,1,1,0,0,1,.46-.84L36.85.16a1,1,0,0,1,1.09,0L66.22,18.44a1,1,0,0,1,.46.84,1,1,0,0,1-.46.84L37.94,38.41A1,1,0,0,1,37.4,38.57ZM11,19.28,37.4,36.38l26.44-17.1L37.4,2.19Z"/><path class="cls-1" d="M37.4,75.14a1.1,1.1,0,0,1-.55-.16L8.57,56.69a1,1,0,0,1-.46-.84V33.27h2v22L37.4,73,64.68,55.31V33.65h2v22.2a1,1,0,0,1-.46.84L37.94,75A1,1,0,0,1,37.4,75.14Z"/></g></g></svg>