<svg xmlns="http://www.w3.org/2000/svg" viewBox="0 0 74.37 72.59"><defs><style>.cls-1{fill:#003594;}</style></defs><g id="Layer_2" data-name="Layer 2"><g id="Layer_1-2" data-name="Layer 1"><circle class="cls-1" cx="51.33" cy="17.63" r="4"/><circle class="cls-1" cx="21.71" cy="38.79" r="4"/><circle class="cls-1" cx="35.75" cy="68.59" r="4"/><path class="cls-1" d="M73.37,35.79H34.79a1,1,0,0,1,0-2H73.37a1,1,0,0,1,0,2Z"/><path class="cls-1" d="M44.18,68.31l-.54-1.93A32.73,32.73,0,0,0,62.31,52.64L64,53.73A34.81,34.81,0,0,1,44.18,68.31Z"/><path class="cls-1" d="M27.57,68.84a34.8,34.8,0,1,1,42-34.05h-2A32.8,32.8,0,1,0,28,66.88Z"/><path class="cls-1" d="M34.79,59.85A25.06,25.06,0,1,1,45.08,11.94l-.82,1.82a23.06,23.06,0,1,0,9.39,34.31l1.64,1.15A25.12,25.12,0,0,1,34.79,59.85Z"/><path class="cls-1" d="M59.85,34.79h-2a23.09,23.09,0,0,0-3.13-11.62l1.72-1A25.08,25.08,0,0,1,59.85,34.79Z"/><path class="cls-1" d="M34.79,49.64A14.83,14.83,0,0,1,25.05,46l1.32-1.51A12.85,12.85,0,0,0,44.51,43.2L46,44.51A14.83,14.83,0,0,1,34.79,49.64Z"/><path class="cls-1" d="M49.64,34.79h-2a12.85,12.85,0,0,0-25.2-3.54l-1.92-.55a14.85,14.85,0,0,1,29.12,4.09Z"/></g></g></svg>