<svg xmlns="http://www.w3.org/2000/svg" viewBox="0 0 103.14 52.72"><defs><style>.cls-1{fill:#003594;}</style></defs><g id="Layer_2" data-name="Layer 2"><g id="Layer_1-2" data-name="Layer 1"><path class="cls-1" d="M21,40.27v5.82h-.7v-4.8h0a.4.4,0,0,1-.2.18,1.59,1.59,0,0,1-.43.18,2.1,2.1,0,0,1-.59.08v-.6a1.31,1.31,0,0,0,.58-.12,1.41,1.41,0,0,0,.41-.28,2.12,2.12,0,0,0,.26-.3l.1-.16Z"/><path class="cls-1" d="M27.18,46.09v-.51l1.92-2.1c.23-.25.41-.46.56-.65a2.56,2.56,0,0,0,.33-.51,1.32,1.32,0,0,0,.1-.51.87.87,0,0,0-.32-.73,1.13,1.13,0,0,0-.79-.27,1.09,1.09,0,0,0-.81.3,1.12,1.12,0,0,0-.29.8h-.67a1.68,1.68,0,0,1,.23-.9,1.61,1.61,0,0,1,.64-.6,1.9,1.9,0,0,1,.92-.22,1.83,1.83,0,0,1,.91.22,1.65,1.65,0,0,1,.62.58,1.53,1.53,0,0,1,.22.82,1.88,1.88,0,0,1-.11.62,2.78,2.78,0,0,1-.4.68c-.19.25-.45.55-.78.91l-1.31,1.4v0h2.7v.63Z"/><path class="cls-1" d="M36.24,46.17a2.58,2.58,0,0,1-1-.19,1.74,1.74,0,0,1-.7-.54,1.49,1.49,0,0,1-.28-.81H35a.85.85,0,0,0,.39.67,1.48,1.48,0,0,0,.86.24,1.44,1.44,0,0,0,.92-.28.91.91,0,0,0,.36-.75,1,1,0,0,0-.35-.79,1.55,1.55,0,0,0-1-.3h-.47v-.63h.47a1.28,1.28,0,0,0,.84-.27.92.92,0,0,0,.33-.74.94.94,0,0,0-.29-.71,1.07,1.07,0,0,0-.77-.26,1.56,1.56,0,0,0-.57.1,1.16,1.16,0,0,0-.43.32.84.84,0,0,0-.18.5h-.68a1.4,1.4,0,0,1,.27-.81,1.74,1.74,0,0,1,.68-.54,2.33,2.33,0,0,1,.92-.19,1.83,1.83,0,0,1,.93.22,1.53,1.53,0,0,1,.8,1.34,1.38,1.38,0,0,1-.26.84,1.32,1.32,0,0,1-.69.48v0a1.39,1.39,0,0,1,.86.47,1.45,1.45,0,0,1,.31.93,1.47,1.47,0,0,1-.26.85,1.76,1.76,0,0,1-.7.59A2.21,2.21,0,0,1,36.24,46.17Z"/><path class="cls-1" d="M43.73,44.9v-.58l2.56-4h.85v4h.79v.63h-.79v1.19h-.67V44.9Zm2.74-.63v-3.1h0l-1.93,3.06v0Z"/><path class="cls-1" d="M62.07,46.17a2,2,0,0,1-.9-.2,1.56,1.56,0,0,1-.64-.55,1.53,1.53,0,0,1-.27-.79h.68a1,1,0,0,0,.36.66,1.21,1.21,0,0,0,.77.25,1.24,1.24,0,0,0,.64-.16,1.33,1.33,0,0,0,.44-.47,1.4,1.4,0,0,0,.16-.66,1.37,1.37,0,0,0-.17-.68,1.2,1.2,0,0,0-.45-.47,1.27,1.27,0,0,0-.67-.18,1.73,1.73,0,0,0-.54.08,1.88,1.88,0,0,0-.47.21l-.66-.08.36-2.86h3v.63H61.3l-.21,1.71h0a1.52,1.52,0,0,1,.44-.23,1.56,1.56,0,0,1,.57-.1,1.82,1.82,0,0,1,1.61.95,2.07,2.07,0,0,1,.24,1,1.92,1.92,0,0,1-.25,1,1.8,1.8,0,0,1-.68.69A2,2,0,0,1,62.07,46.17Z"/><path class="cls-1" d="M69.3,46.17a2.3,2.3,0,0,1-.72-.14,1.54,1.54,0,0,1-.65-.44,2.26,2.26,0,0,1-.48-.84A5.22,5.22,0,0,1,67.84,41a1.77,1.77,0,0,1,1.55-.84,1.72,1.72,0,0,1,1.21.43,1.76,1.76,0,0,1,.59,1.12H70.5a1.27,1.27,0,0,0-.37-.66,1,1,0,0,0-.74-.26,1.22,1.22,0,0,0-1.07.58,3,3,0,0,0-.39,1.67h0a1.66,1.66,0,0,1,.61-.57,1.64,1.64,0,0,1,.82-.21,1.78,1.78,0,0,1,.91.25,1.92,1.92,0,0,1,.92,1.68,2.07,2.07,0,0,1-.24,1,1.79,1.79,0,0,1-.68.71A1.89,1.89,0,0,1,69.3,46.17Zm0-.63a1.23,1.23,0,0,0,1.09-.66,1.36,1.36,0,0,0,.17-.67,1.39,1.39,0,0,0-.16-.65,1.36,1.36,0,0,0-.44-.48,1.25,1.25,0,0,0-.64-.17,1.2,1.2,0,0,0-.65.18,1.44,1.44,0,0,0-.46.49,1.22,1.22,0,0,0-.17.65,1.29,1.29,0,0,0,.16.64,1.33,1.33,0,0,0,.45.49A1.18,1.18,0,0,0,69.3,45.54Z"/><path class="cls-1" d="M77,46.09l2.61-5.15v0h-3v-.63h3.72v.66l-2.59,5.16Z"/><path class="cls-1" d="M87.78,46.17a2.4,2.4,0,0,1-1-.21,1.67,1.67,0,0,1-.7-.58,1.48,1.48,0,0,1-.24-.84,1.56,1.56,0,0,1,.14-.68,1.64,1.64,0,0,1,.41-.53,1.14,1.14,0,0,1,.57-.26v0a1.09,1.09,0,0,1-.66-.47,1.37,1.37,0,0,1-.25-.82,1.47,1.47,0,0,1,.23-.8,1.66,1.66,0,0,1,.62-.55,2.17,2.17,0,0,1,1.82,0,1.66,1.66,0,0,1,.62.55,1.48,1.48,0,0,1,.24.8,1.45,1.45,0,0,1-.26.82,1.1,1.1,0,0,1-.65.47v0a1.14,1.14,0,0,1,.57.26,1.76,1.76,0,0,1,.4.53,1.57,1.57,0,0,1,.15.68,1.41,1.41,0,0,1-.25.84,1.67,1.67,0,0,1-.7.58A2.37,2.37,0,0,1,87.78,46.17Zm0-.63a1.42,1.42,0,0,0,.94-.28.93.93,0,0,0,.35-.75,1,1,0,0,0-.17-.58,1.2,1.2,0,0,0-.46-.4,1.4,1.4,0,0,0-.66-.15,1.45,1.45,0,0,0-.66.15,1.2,1.2,0,0,0-.46.4,1,1,0,0,0-.16.58.92.92,0,0,0,.34.75A1.44,1.44,0,0,0,87.78,45.54Zm0-2.76a1.14,1.14,0,0,0,.78-.27.94.94,0,0,0,.3-.73.91.91,0,0,0-.3-.71,1.08,1.08,0,0,0-.78-.26,1.12,1.12,0,0,0-.78.26.87.87,0,0,0-.29.71.9.9,0,0,0,.29.73A1.16,1.16,0,0,0,87.78,42.78Z"/><rect class="cls-1" x="50.57" y="7.71" width="2" height="36.49"/><rect class="cls-1" x="45.57" y="7.71" width="2" height="29.36"/><rect class="cls-1" x="37.57" y="7.71" width="2" height="29.36"/><rect class="cls-1" x="34.57" y="7.71" width="2" height="29.36"/><rect class="cls-1" x="27.57" y="7.71" width="2" height="29.36"/><rect class="cls-1" x="21.57" y="7.71" width="2" height="29.36"/><rect class="cls-1" x="18.57" y="7.71" width="2" height="29.36"/><rect class="cls-1" x="15.57" y="7.71" width="2" height="29.36"/><rect class="cls-1" x="9.57" y="7.71" width="2" height="36.49"/><rect class="cls-1" x="54.57" y="7.71" width="2" height="29.36"/><rect class="cls-1" x="62.57" y="7.71" width="2" height="29.36"/><rect class="cls-1" x="65.57" y="7.71" width="2" height="29.36"/><rect class="cls-1" x="72.57" y="7.71" width="2" height="29.36"/><rect class="cls-1" x="78.57" y="7.71" width="2" height="29.36"/><rect class="cls-1" x="81.57" y="7.71" width="2" height="29.36"/><rect class="cls-1" x="84.57" y="7.71" width="2" height="29.36"/><rect class="cls-1" x="91.57" y="7.71" width="2" height="36.49"/><path class="cls-1" d="M97.14,52.72H6a6,6,0,0,1-6-6V6A6,6,0,0,1,6,0H97.14a6,6,0,0,1,6,6V46.72A6,6,0,0,1,97.14,52.72ZM6,2A4,4,0,0,0,2,6V46.72a4,4,0,0,0,4,4H97.14a4,4,0,0,0,4-4V6a4,4,0,0,0-4-4Z"/></g></g></svg>