<svg xmlns="http://www.w3.org/2000/svg" viewBox="0 0 86.83 86.99"><defs><style>.cls-1,.cls-2,.cls-3{fill:none;stroke:#003594;stroke-linecap:round;stroke-width:2px;}.cls-1,.cls-2{stroke-linejoin:round;}.cls-2{stroke-dasharray:2.96 4.44;}.cls-3{stroke-miterlimit:10;}</style></defs><g id="Layer_2" data-name="Layer 2"><g id="Layer_1-2" data-name="Layer 1"><path class="cls-1" d="M43,11.45,2.73,51.68a5.93,5.93,0,0,0,0,8.38l24.2,24.19a5.91,5.91,0,0,0,8.38,0L75.54,44V11.45Z"/><circle class="cls-1" cx="60.74" cy="26.25" r="5.92"/><path class="cls-2" d="M75.54,26.25c5,0,8.17-5.2,9.94-12.14C88.1,3.83,75.26-3.53,68,4.24c-4.68,5-7.3,12.47-7.3,22"/><path class="cls-3" d="M33.66,45.55a5.5,5.5,0,0,0,7.78,7.78c3-3,.22-8,.22-8s-2.79-5,.22-8a5.49,5.49,0,0,1,7.77,7.77"/><line class="cls-1" x1="51.85" y1="35.14" x2="49.6" y2="37.39"/><line class="cls-1" x1="31.12" y1="55.87" x2="33.71" y2="53.28"/><line class="cls-1" x1="22.24" y1="57.35" x2="29.64" y2="64.75"/><line class="cls-1" x1="13.35" y1="57.35" x2="29.64" y2="73.64"/></g></g></svg>