<svg xmlns="http://www.w3.org/2000/svg" viewBox="0 0 37.91 35.88"><defs><style>.cls-1{fill:#003594;}</style></defs><g id="Layer_2" data-name="Layer 2"><g id="Layer_1-2" data-name="Layer 1"><path class="cls-1" d="M32.5,13.57a13.54,13.54,0,1,0-27.08,0v0A5.75,5.75,0,0,0,0,19.3V20a5.75,5.75,0,0,0,5.75,5.76h.31l2.4,3.82a9.06,9.06,0,0,0,7.76,4.3h.47a2.71,2.71,0,1,0,0-1.35h-.47a7.75,7.75,0,0,1-6.61-3.69l-2-3.08h.47a1.36,1.36,0,0,0,1.36-1.36V14.9a1.36,1.36,0,0,0-1.36-1.36H6.77a12.19,12.19,0,1,1,24.37,0H29.79a1.36,1.36,0,0,0-1.35,1.36v9.47a1.36,1.36,0,0,0,1.35,1.36h2.37A5.75,5.75,0,0,0,37.91,20V19.3A5.75,5.75,0,0,0,32.5,13.57ZM19.3,31.82a1.36,1.36,0,1,1-1.36,1.36A1.36,1.36,0,0,1,19.3,31.82ZM8.12,14.9v9.47H5.75A4.39,4.39,0,0,1,1.35,20V19.3a4.39,4.39,0,0,1,4.4-4.4ZM36.56,20a4.39,4.39,0,0,1-4.4,4.4H29.79V14.9h2.37a4.39,4.39,0,0,1,4.4,4.4Z"/></g></g></svg>