<?xml version="1.0" encoding="UTF-8"?><svg id="Layer_2" xmlns="http://www.w3.org/2000/svg" xmlns:xlink="http://www.w3.org/1999/xlink" viewBox="0 0 40 40"><defs><style>.cls-1{fill:#fff;}.cls-2{fill:url(#linear-gradient);}</style><linearGradient id="linear-gradient" x1="14.68" y1=".72" x2="25.32" y2="39.28" gradientTransform="matrix(1, 0, 0, 1, 0, 0)" gradientUnits="userSpaceOnUse"><stop offset="0" stop-color="#17a8fc"/><stop offset=".23" stop-color="#149ff8"/><stop offset=".6" stop-color="#0c86ee"/><stop offset="1" stop-color="#0266e2"/></linearGradient></defs><g id="Layer_1-2"><g><path class="cls-2" d="M40,20C40,8.95,31.05,0,20,0S0,8.95,0,20c0,9.98,7.31,18.26,16.87,19.76v-13.98h-5.08v-5.78h5.08v-4.41c0-5.01,2.99-7.78,7.55-7.78,2.19,0,4.48,.39,4.48,.39v4.92h-2.52c-2.48,0-3.26,1.54-3.26,3.12v3.75h5.55l-.89,5.78h-4.66v13.98c9.56-1.5,16.87-9.77,16.87-19.76Z"/><path class="cls-1" d="M27.79,25.78l.89-5.78h-5.55v-3.75c0-1.58,.77-3.12,3.26-3.12h2.52v-4.92s-2.29-.39-4.48-.39c-4.57,0-7.55,2.77-7.55,7.78v4.41h-5.08v5.78h5.08v13.98c1.02,.16,2.06,.24,3.12,.24s2.11-.08,3.12-.24v-13.98h4.66Z"/></g></g></svg>