<?xml version="1.0" encoding="UTF-8"?><svg id="Layer_2" xmlns="http://www.w3.org/2000/svg" viewBox="0 0 40 40"><defs><style>.cls-1{fill:#fff;}.cls-2{fill:#1cb7eb;}</style></defs><g id="Layer_1-2"><g><circle class="cls-2" cx="20" cy="20" r="20" transform="translate(-1.96 37.83) rotate(-84.08)"/><path class="cls-1" d="M31.05,13.15c-.69,.31-1.46,.5-2.21,.63,.35-.06,.88-.7,1.08-.96,.32-.4,.58-.85,.73-1.34,.02-.04,.03-.09,0-.11-.05-.02-.08,0-.12,0-.83,.45-1.7,.77-2.62,1-.08,.02-.13,0-.18-.05-.08-.09-.15-.17-.23-.23-.39-.33-.8-.59-1.27-.78-.61-.25-1.28-.36-1.94-.31-.64,.04-1.27,.22-1.84,.52-.57,.3-1.08,.71-1.49,1.21-.42,.52-.73,1.13-.89,1.78-.15,.63-.14,1.25-.05,1.88,.01,.1,0,.12-.09,.1-3.59-.53-6.57-1.82-8.99-4.57-.1-.12-.16-.12-.25,0-1.06,1.59-.54,4.13,.78,5.38,.18,.17,.36,.33,.55,.49-.07,.01-.95-.08-1.73-.49-.1-.07-.16-.03-.17,.09,0,.17,0,.33,.03,.51,.2,1.61,1.32,3.09,2.84,3.67,.18,.08,.38,.14,.58,.18-.35,.08-.7,.13-1.7,.05-.12-.02-.17,.04-.12,.16,.75,2.04,2.36,2.65,3.57,2.99,.16,.03,.32,.03,.49,.07,0,.01-.02,.01-.03,.03-.4,.61-1.79,1.07-2.44,1.29-1.18,.41-2.46,.6-3.71,.47-.2-.03-.24-.03-.3,0-.05,.03,0,.08,.06,.13,.25,.17,.51,.31,.77,.46,.79,.42,1.62,.75,2.48,.99,4.45,1.23,9.47,.33,12.81-3,2.63-2.61,3.55-6.21,3.55-9.81,0-.14,.17-.22,.27-.29,.68-.51,1.23-1.13,1.74-1.81,.11-.15,.12-.29,.12-.35v-.02c0-.06,0-.04-.09,0Z"/></g></g></svg>