<svg xmlns="http://www.w3.org/2000/svg" width="28" height="27.999" viewBox="0 0 28 27.999">
  <path id="feed" d="M6697.885,1220.088a14,14,0,1,0,14,14A14,14,0,0,0,6697.885,1220.088Zm-4.341,20.315a1.841,1.841,0,1,1,1.841-1.841A1.842,1.842,0,0,1,6693.544,1240.4Zm4.619.012a6.458,6.458,0,0,0-1.894-4.594,6.392,6.392,0,0,0-4.564-1.9v-2.657a9.142,9.142,0,0,1,9.113,9.152Zm4.692,0a11.19,11.19,0,0,0-11.146-11.207v-2.658a13.852,13.852,0,0,1,13.8,13.865Z" transform="translate(-6683.886 -1220.088)" fill="#c7c7c7"/>
</svg>
