<svg xmlns="http://www.w3.org/2000/svg" width="28" height="28.001" viewBox="0 0 28 28.001">
  <g id="google" transform="translate(-6760.859 -1220.088)">
    <g id="Group_8" data-name="Group 8" transform="translate(6760.859 1220.088)">
      <path id="Path_17" data-name="Path 17" d="M6772.215,1233.012a1.14,1.14,0,0,0,.89-.407,2.334,2.334,0,0,0,.431-1.823,2.579,2.579,0,0,0-2.061-2.4l-.038,0a1.145,1.145,0,0,0-.88.407,2.249,2.249,0,0,0-.416,1.783c.169,1.294,1.113,2.413,2.059,2.441Z" transform="translate(-6760.825 -1220.056)" fill="#c7c7c7"/>
      <path id="Path_18" data-name="Path 18" d="M6773.27,1236.913c-.1-.063-.193-.131-.294-.2a3.335,3.335,0,0,0-.94-.144H6772c-1.487,0-2.793.9-2.793,1.929a2.3,2.3,0,0,0,2.546,1.994c1.883,0,2.837-.648,2.837-1.929a1.717,1.717,0,0,0-.044-.371C6774.415,1237.694,6773.959,1237.384,6773.27,1236.913Z" transform="translate(-6760.826 -1220.027)" fill="#c7c7c7"/>
      <path id="Path_19" data-name="Path 19" d="M6774.859,1220.088a14,14,0,1,0,14,14A14,14,0,0,0,6774.859,1220.088Zm-1.274,21.618a6.487,6.487,0,0,1-1.794.243,8.268,8.268,0,0,1-2.012-.241,3.912,3.912,0,0,1-2.548-1.647,2.091,2.091,0,0,1-.273-1.032,2.6,2.6,0,0,1,.264-1.117,4.788,4.788,0,0,1,4.39-2.387.5.5,0,0,0,.056,0,1.724,1.724,0,0,1-.235-.873,1.878,1.878,0,0,1,.06-.464,3.523,3.523,0,0,1-3.585-3.528,3.773,3.773,0,0,1,2.714-3.312,4.491,4.491,0,0,1,1.448-.248h4.383a.345.345,0,0,1,.327.24.34.34,0,0,1-.125.385l-.98.709a.343.343,0,0,1-.2.065h-.35a3.414,3.414,0,0,1,.718,2.189,3.27,3.27,0,0,1-1.37,2.562c-.683.532-.711.677-.711.982a2.946,2.946,0,0,0,1.009,1.083,3.388,3.388,0,0,1,1.678,3.13A3.576,3.576,0,0,1,6773.585,1241.706Zm9.9-7.524a.344.344,0,0,1-.344.345h-2.493v2.493a.345.345,0,0,1-.344.345h-.709a.347.347,0,0,1-.348-.345v-2.493h-2.492a.344.344,0,0,1-.344-.345v-.708a.345.345,0,0,1,.344-.346h2.492v-2.491a.347.347,0,0,1,.348-.346h.709a.345.345,0,0,1,.344.346v2.491h2.493a.345.345,0,0,1,.344.346Z" transform="translate(-6760.859 -1220.088)" fill="#c7c7c7"/>
    </g>
  </g>
</svg>
