<svg xmlns="http://www.w3.org/2000/svg" width="28" height="28.001" viewBox="0 0 28 28.001">
  <g id="linkedin" transform="translate(-6722.373 -1220.088)">
    <g id="Group_6" data-name="Group 6" transform="translate(6722.373 1220.088)">
      <path id="Path_13" data-name="Path 13" d="M6736.374,1220.088a14,14,0,1,0,14,14A14,14,0,0,0,6736.374,1220.088Zm7.8,20.8a1.141,1.141,0,0,1-1.154,1.129H6729.7a1.142,1.142,0,0,1-1.156-1.129V1227.42a1.142,1.142,0,0,1,1.156-1.126h13.313a1.14,1.14,0,0,1,1.154,1.126Z" transform="translate(-6722.373 -1220.088)" fill="#c7c7c7"/>
      <path id="Path_14" data-name="Path 14" d="M6739.022,1232.151a2.335,2.335,0,0,0-2.12,1.168v.023h-.015l.015-.023v-1h-2.352c.031.663,0,7.076,0,7.076h2.352v-3.953a1.61,1.61,0,0,1,.078-.573,1.29,1.29,0,0,1,1.206-.86c.853,0,1.192.649,1.192,1.6v3.785h2.353v-4.057C6741.731,1233.162,6740.57,1232.151,6739.022,1232.151Z" transform="translate(-6722.321 -1220.036)" fill="#c7c7c7"/>
      <path id="Path_15" data-name="Path 15" d="M6732.088,1228.9a1.227,1.227,0,1,0-.031,2.447h.016a1.227,1.227,0,1,0,.015-2.447Z" transform="translate(-6722.344 -1220.057)" fill="#c7c7c7"/>
      <rect id="Rectangle_6" data-name="Rectangle 6" width="2.351" height="7.076" transform="translate(8.554 12.281)" fill="#c7c7c7"/>
    </g>
  </g>
</svg>
