<svg xmlns="http://www.w3.org/2000/svg" width="28" height="28.001" viewBox="0 0 28 28.001">
  <path id="twitter" d="M6813.345,1220.088a14,14,0,1,0,14,14A14,14,0,0,0,6813.345,1220.088Zm7.053,11.178c.008.151.01.305.01.458a10.035,10.035,0,0,1-15.447,8.452,7.13,7.13,0,0,0,5.224-1.462,3.531,3.531,0,0,1-3.3-2.45,3.441,3.441,0,0,0,.663.064,3.507,3.507,0,0,0,.93-.124,3.531,3.531,0,0,1-2.831-3.46v-.044a3.527,3.527,0,0,0,1.6.441,3.53,3.53,0,0,1-1.094-4.71,10.016,10.016,0,0,0,7.273,3.686,3.53,3.53,0,0,1,6.012-3.218,7.094,7.094,0,0,0,2.241-.856,3.536,3.536,0,0,1-1.552,1.952,7.16,7.16,0,0,0,2.027-.556A7.163,7.163,0,0,1,6820.4,1231.266Z" transform="translate(-6799.345 -1220.088)" fill="#c7c7c7"/>
</svg>
